  0
SECTION
  2
TABLES
  0
TABLE
  2
LTYPE
 70
     1
  0
LTYPE
  2
CONTINUOUS
 70
    64
  3
Solid line
 72
    65
 73
     0
 40
0.000000
  0
ENDTAB
  0
TABLE
  2
LAYER
 70
     1
  0
LAYER
  2
block06
 70
     0
 62
    53
  6
CONTINUOUS
  0
ENDTAB
  0
ENDSEC
  0
SECTION
  2
ENTITIES
  0
POLYLINE
  8
block06
 66
     1
 10
0.000000
 20
0.000000
 30
0.000000
 70
    64
 71
   440
 72
   844
  0
VERTEX
  8
block06
 10
2.400000
 20
0.700000
 30
1.400000
 70
   192
  0
VERTEX
  8
block06
 10
2.400000
 20
0.600000
 30
0.000000
 70
   192
  0
VERTEX
  8
block06
 10
2.400000
 20
0.600000
 30
1.400000
 70
   192
  0
VERTEX
  8
block06
 10
2.200000
 20
0.700000
 30
0.013397
 70
   192
  0
VERTEX
  8
block06
 10
2.150000
 20
0.700000
 30
0.100000
 70
   192
  0
VERTEX
  8
block06
 10
2.163398
 20
0.700000
 30
0.050000
 70
   192
  0
VERTEX
  8
block06
 10
2.250000
 20
0.700000
 30
0.000000
 70
   192
  0
VERTEX
  8
block06
 10
2.400000
 20
0.700000
 30
0.000000
 70
   192
  0
VERTEX
  8
block06
 10
2.150000
 20
0.700000
 30
1.400000
 70
   192
  0
VERTEX
  8
block06
 10
2.150000
 20
0.600000
 30
1.400000
 70
   192
  0
VERTEX
  8
block06
 10
2.150000
 20
0.600000
 30
0.100000
 70
   192
  0
VERTEX
  8
block06
 10
2.250000
 20
0.600000
 30
0.000000
 70
   192
  0
VERTEX
  8
block06
 10
2.200000
 20
0.600000
 30
0.013397
 70
   192
  0
VERTEX
  8
block06
 10
2.163398
 20
0.600000
 30
0.050000
 70
   192
  0
VERTEX
  8
block06
 10
1.300000
 20
0.850000
 30
0.000000
 70
   192
  0
VERTEX
  8
block06
 10
1.300000
 20
1.150000
 30
1.400000
 70
   192
  0
VERTEX
  8
block06
 10
1.200000
 20
0.850000
 30
1.400000
 70
   192
  0
VERTEX
  8
block06
 10
1.300000
 20
1.150000
 30
0.000000
 70
   192
  0
VERTEX
  8
block06
 10
1.200000
 20
1.150000
 30
0.000000
 70
   192
  0
VERTEX
  8
block06
 10
1.200000
 20
0.850000
 30
0.000000
 70
   192
  0
VERTEX
  8
block06
 10
1.300000
 20
0.850000
 30
1.400000
 70
   192
  0
VERTEX
  8
block06
 10
1.200000
 20
1.150000
 30
1.400000
 70
   192
  0
VERTEX
  8
block06
 10
0.700000
 20
0.900000
 30
0.100000
 70
   192
  0
VERTEX
  8
block06
 10
0.700000
 20
1.000000
 30
0.000000
 70
   192
  0
VERTEX
  8
block06
 10
0.700000
 20
0.950000
 30
0.013397
 70
   192
  0
VERTEX
  8
block06
 10
0.700000
 20
1.150000
 30
0.000000
 70
   192
  0
VERTEX
  8
block06
 10
0.700000
 20
1.150000
 30
1.400000
 70
   192
  0
VERTEX
  8
block06
 10
0.700000
 20
0.900000
 30
1.400000
 70
   192
  0
VERTEX
  8
block06
 10
0.600000
 20
1.150000
 30
1.400000
 70
   192
  0
VERTEX
  8
block06
 10
0.600000
 20
0.900000
 30
1.400000
 70
   192
  0
VERTEX
  8
block06
 10
0.600000
 20
0.913397
 30
0.050000
 70
   192
  0
VERTEX
  8
block06
 10
0.600000
 20
1.150000
 30
0.000000
 70
   192
  0
VERTEX
  8
block06
 10
0.700000
 20
0.913397
 30
0.050000
 70
   192
  0
VERTEX
  8
block06
 10
0.600000
 20
1.000000
 30
0.000000
 70
   192
  0
VERTEX
  8
block06
 10
0.600000
 20
0.950000
 30
0.013397
 70
   192
  0
VERTEX
  8
block06
 10
0.600000
 20
0.900000
 30
0.100000
 70
   192
  0
VERTEX
  8
block06
 10
1.900000
 20
1.150000
 30
1.400000
 70
   192
  0
VERTEX
  8
block06
 10
1.900000
 20
1.150000
 30
0.000000
 70
   192
  0
VERTEX
  8
block06
 10
1.900000
 20
1.000000
 30
0.000000
 70
   192
  0
VERTEX
  8
block06
 10
1.800000
 20
0.900000
 30
1.400000
 70
   192
  0
VERTEX
  8
block06
 10
1.800000
 20
0.900000
 30
0.100000
 70
   192
  0
VERTEX
  8
block06
 10
1.900000
 20
0.900000
 30
1.400000
 70
   192
  0
VERTEX
  8
block06
 10
1.800000
 20
1.150000
 30
1.400000
 70
   192
  0
VERTEX
  8
block06
 10
1.800000
 20
1.150000
 30
0.000000
 70
   192
  0
VERTEX
  8
block06
 10
1.800000
 20
0.950000
 30
0.013397
 70
   192
  0
VERTEX
  8
block06
 10
1.800000
 20
1.000000
 30
0.000000
 70
   192
  0
VERTEX
  8
block06
 10
1.900000
 20
0.950000
 30
0.013397
 70
   192
  0
VERTEX
  8
block06
 10
1.900000
 20
0.913397
 30
0.050000
 70
   192
  0
VERTEX
  8
block06
 10
1.900000
 20
0.900000
 30
0.100000
 70
   192
  0
VERTEX
  8
block06
 10
1.800000
 20
0.913397
 30
0.050000
 70
   192
  0
VERTEX
  8
block06
 10
2.200000
 20
0.600000
 30
1.500000
 70
   192
  0
VERTEX
  8
block06
 10
2.050000
 20
0.859808
 30
1.500000
 70
   192
  0
VERTEX
  8
block06
 10
1.900000
 20
0.950000
 30
1.500000
 70
   192
  0
VERTEX
  8
block06
 10
1.725000
 20
0.903109
 30
1.500000
 70
   192
  0
VERTEX
  8
block06
 10
1.596891
 20
0.775000
 30
1.500000
 70
   192
  0
VERTEX
  8
block06
 10
1.596891
 20
0.425000
 30
1.500000
 70
   192
  0
VERTEX
  8
block06
 10
1.725000
 20
0.296891
 30
1.500000
 70
   192
  0
VERTEX
  8
block06
 10
1.900000
 20
0.300000
 30
1.500000
 70
   192
  0
VERTEX
  8
block06
 10
1.900000
 20
0.250000
 30
1.500000
 70
   192
  0
VERTEX
  8
block06
 10
1.750000
 20
0.340192
 30
1.500000
 70
   192
  0
VERTEX
  8
block06
 10
1.640192
 20
0.750000
 30
1.500000
 70
   192
  0
VERTEX
  8
block06
 10
2.159808
 20
0.750000
 30
1.500000
 70
   192
  0
VERTEX
  8
block06
 10
2.203109
 20
0.425000
 30
1.500000
 70
   192
  0
VERTEX
  8
block06
 10
2.050000
 20
0.340192
 30
1.500000
 70
   192
  0
VERTEX
  8
block06
 10
1.750000
 20
0.340192
 30
1.725000
 70
   192
  0
VERTEX
  8
block06
 10
1.600000
 20
0.600000
 30
1.500000
 70
   192
  0
VERTEX
  8
block06
 10
1.640192
 20
0.750000
 30
1.725000
 70
   192
  0
VERTEX
  8
block06
 10
1.900000
 20
0.900000
 30
1.725000
 70
   192
  0
VERTEX
  8
block06
 10
1.750000
 20
0.859808
 30
1.500000
 70
   192
  0
VERTEX
  8
block06
 10
1.900000
 20
0.900000
 30
1.500000
 70
   192
  0
VERTEX
  8
block06
 10
1.640192
 20
0.450000
 30
1.500000
 70
   192
  0
VERTEX
  8
block06
 10
2.159808
 20
0.450000
 30
1.500000
 70
   192
  0
VERTEX
  8
block06
 10
2.062500
 20
0.318542
 30
1.750000
 70
   192
  0
VERTEX
  8
block06
 10
2.056250
 20
0.329367
 30
1.746651
 70
   192
  0
VERTEX
  8
block06
 10
2.068750
 20
0.307716
 30
1.746651
 70
   192
  0
VERTEX
  8
block06
 10
1.900000
 20
0.275000
 30
1.750000
 70
   192
  0
VERTEX
  8
block06
 10
1.900000
 20
0.262500
 30
1.746651
 70
   192
  0
VERTEX
  8
block06
 10
1.743750
 20
0.329367
 30
1.746651
 70
   192
  0
VERTEX
  8
block06
 10
1.618542
 20
0.437500
 30
1.750000
 70
   192
  0
VERTEX
  8
block06
 10
1.737500
 20
0.318542
 30
1.750000
 70
   192
  0
VERTEX
  8
block06
 10
1.731250
 20
0.307716
 30
1.746651
 70
   192
  0
VERTEX
  8
block06
 10
1.629367
 20
0.443750
 30
1.746651
 70
   192
  0
VERTEX
  8
block06
 10
1.562500
 20
0.600000
 30
1.746651
 70
   192
  0
VERTEX
  8
block06
 10
1.553349
 20
0.600000
 30
1.737500
 70
   192
  0
VERTEX
  8
block06
 10
1.607716
 20
0.431250
 30
1.746651
 70
   192
  0
VERTEX
  8
block06
 10
1.575000
 20
0.600000
 30
1.750000
 70
   192
  0
VERTEX
  8
block06
 10
1.618542
 20
0.762500
 30
1.750000
 70
   192
  0
VERTEX
  8
block06
 10
1.629367
 20
0.756250
 30
1.746651
 70
   192
  0
VERTEX
  8
block06
 10
1.737500
 20
0.881458
 30
1.750000
 70
   192
  0
VERTEX
  8
block06
 10
1.900000
 20
0.925000
 30
1.750000
 70
   192
  0
VERTEX
  8
block06
 10
1.900000
 20
0.937500
 30
1.746651
 70
   192
  0
VERTEX
  8
block06
 10
2.068750
 20
0.892284
 30
1.746651
 70
   192
  0
VERTEX
  8
block06
 10
2.170633
 20
0.443750
 30
1.746651
 70
   192
  0
VERTEX
  8
block06
 10
2.062500
 20
0.881458
 30
1.750000
 70
   192
  0
VERTEX
  8
block06
 10
2.192284
 20
0.768750
 30
1.746651
 70
   192
  0
VERTEX
  8
block06
 10
2.181458
 20
0.762500
 30
1.750000
 70
   192
  0
VERTEX
  8
block06
 10
1.900000
 20
0.950000
 30
1.725000
 70
   192
  0
VERTEX
  8
block06
 10
1.748325
 20
0.337292
 30
1.737500
 70
   192
  0
VERTEX
  8
block06
 10
1.640192
 20
0.450000
 30
1.725000
 70
   192
  0
VERTEX
  8
block06
 10
1.596891
 20
0.425000
 30
1.725000
 70
   192
  0
VERTEX
  8
block06
 10
2.051675
 20
0.337292
 30
1.737500
 70
   192
  0
VERTEX
  8
block06
 10
2.051675
 20
0.862708
 30
1.737500
 70
   192
  0
VERTEX
  8
block06
 10
2.056250
 20
0.870633
 30
1.746651
 70
   192
  0
VERTEX
  8
block06
 10
2.162708
 20
0.751675
 30
1.737500
 70
   192
  0
VERTEX
  8
block06
 10
2.192284
 20
0.431250
 30
1.746651
 70
   192
  0
VERTEX
  8
block06
 10
2.212500
 20
0.600000
 30
1.746651
 70
   192
  0
VERTEX
  8
block06
 10
2.246651
 20
0.600000
 30
1.737500
 70
   192
  0
VERTEX
  8
block06
 10
2.170633
 20
0.756250
 30
1.746651
 70
   192
  0
VERTEX
  8
block06
 10
2.225000
 20
0.600000
 30
1.750000
 70
   192
  0
VERTEX
  8
block06
 10
2.181458
 20
0.437500
 30
1.750000
 70
   192
  0
VERTEX
  8
block06
 10
2.237500
 20
0.600000
 30
1.746651
 70
   192
  0
VERTEX
  8
block06
 10
1.748325
 20
0.862708
 30
1.737500
 70
   192
  0
VERTEX
  8
block06
 10
1.637292
 20
0.751675
 30
1.737500
 70
   192
  0
VERTEX
  8
block06
 10
1.743750
 20
0.870633
 30
1.746651
 70
   192
  0
VERTEX
  8
block06
 10
1.900000
 20
0.912500
 30
1.746651
 70
   192
  0
VERTEX
  8
block06
 10
1.900000
 20
0.903349
 30
1.737500
 70
   192
  0
VERTEX
  8
block06
 10
1.750000
 20
0.859808
 30
1.725000
 70
   192
  0
VERTEX
  8
block06
 10
1.637292
 20
0.448325
 30
1.737500
 70
   192
  0
VERTEX
  8
block06
 10
1.596651
 20
0.600000
 30
1.737500
 70
   192
  0
VERTEX
  8
block06
 10
1.587500
 20
0.600000
 30
1.746651
 70
   192
  0
VERTEX
  8
block06
 10
1.600000
 20
0.600000
 30
1.725000
 70
   192
  0
VERTEX
  8
block06
 10
1.900000
 20
0.300000
 30
1.725000
 70
   192
  0
VERTEX
  8
block06
 10
1.900000
 20
0.287500
 30
1.746651
 70
   192
  0
VERTEX
  8
block06
 10
1.900000
 20
0.296651
 30
1.737500
 70
   192
  0
VERTEX
  8
block06
 10
2.159808
 20
0.450000
 30
1.725000
 70
   192
  0
VERTEX
  8
block06
 10
2.162708
 20
0.448325
 30
1.737500
 70
   192
  0
VERTEX
  8
block06
 10
2.050000
 20
0.340192
 30
1.725000
 70
   192
  0
VERTEX
  8
block06
 10
2.050000
 20
0.859808
 30
1.725000
 70
   192
  0
VERTEX
  8
block06
 10
2.159808
 20
0.750000
 30
1.725000
 70
   192
  0
VERTEX
  8
block06
 10
2.203349
 20
0.600000
 30
1.737500
 70
   192
  0
VERTEX
  8
block06
 10
2.200000
 20
0.600000
 30
1.725000
 70
   192
  0
VERTEX
  8
block06
 10
2.075000
 20
0.296891
 30
1.725000
 70
   192
  0
VERTEX
  8
block06
 10
2.073325
 20
0.299792
 30
1.737500
 70
   192
  0
VERTEX
  8
block06
 10
2.200208
 20
0.426675
 30
1.737500
 70
   192
  0
VERTEX
  8
block06
 10
1.726675
 20
0.299792
 30
1.737500
 70
   192
  0
VERTEX
  8
block06
 10
1.900000
 20
0.250000
 30
1.725000
 70
   192
  0
VERTEX
  8
block06
 10
1.900000
 20
0.253349
 30
1.737500
 70
   192
  0
VERTEX
  8
block06
 10
1.725000
 20
0.296891
 30
1.725000
 70
   192
  0
VERTEX
  8
block06
 10
1.550000
 20
0.600000
 30
1.725000
 70
   192
  0
VERTEX
  8
block06
 10
1.599792
 20
0.426675
 30
1.737500
 70
   192
  0
VERTEX
  8
block06
 10
1.607716
 20
0.768750
 30
1.746651
 70
   192
  0
VERTEX
  8
block06
 10
1.599792
 20
0.773325
 30
1.737500
 70
   192
  0
VERTEX
  8
block06
 10
2.075000
 20
0.903109
 30
1.725000
 70
   192
  0
VERTEX
  8
block06
 10
1.900000
 20
0.946651
 30
1.737500
 70
   192
  0
VERTEX
  8
block06
 10
1.731250
 20
0.892284
 30
1.746651
 70
   192
  0
VERTEX
  8
block06
 10
1.726675
 20
0.900208
 30
1.737500
 70
   192
  0
VERTEX
  8
block06
 10
2.250000
 20
0.600000
 30
1.725000
 70
   192
  0
VERTEX
  8
block06
 10
2.073325
 20
0.900208
 30
1.737500
 70
   192
  0
VERTEX
  8
block06
 10
2.200208
 20
0.773325
 30
1.737500
 70
   192
  0
VERTEX
  8
block06
 10
2.203109
 20
0.775000
 30
1.725000
 70
   192
  0
VERTEX
  8
block06
 10
2.203109
 20
0.425000
 30
1.725000
 70
   192
  0
VERTEX
  8
block06
 10
2.250000
 20
0.600000
 30
1.500000
 70
   192
  0
VERTEX
  8
block06
 10
1.596891
 20
0.775000
 30
1.725000
 70
   192
  0
VERTEX
  8
block06
 10
2.075000
 20
0.296891
 30
1.500000
 70
   192
  0
VERTEX
  8
block06
 10
1.550000
 20
0.600000
 30
1.500000
 70
   192
  0
VERTEX
  8
block06
 10
1.725000
 20
0.903109
 30
1.725000
 70
   192
  0
VERTEX
  8
block06
 10
2.075000
 20
0.903109
 30
1.500000
 70
   192
  0
VERTEX
  8
block06
 10
2.203109
 20
0.775000
 30
1.500000
 70
   192
  0
VERTEX
  8
block06
 10
1.900000
 20
0.350000
 30
0.100000
 70
   192
  0
VERTEX
  8
block06
 10
1.900000
 20
0.350000
 30
1.400000
 70
   192
  0
VERTEX
  8
block06
 10
1.800000
 20
0.350000
 30
1.400000
 70
   192
  0
VERTEX
  8
block06
 10
1.900000
 20
0.100000
 30
1.400000
 70
   192
  0
VERTEX
  8
block06
 10
1.800000
 20
0.100000
 30
1.400000
 70
   192
  0
VERTEX
  8
block06
 10
1.900000
 20
0.100000
 30
0.000000
 70
   192
  0
VERTEX
  8
block06
 10
1.800000
 20
0.100000
 30
0.000000
 70
   192
  0
VERTEX
  8
block06
 10
1.800000
 20
0.250000
 30
0.000000
 70
   192
  0
VERTEX
  8
block06
 10
1.800000
 20
0.336603
 30
0.050000
 70
   192
  0
VERTEX
  8
block06
 10
1.800000
 20
0.300000
 30
0.013397
 70
   192
  0
VERTEX
  8
block06
 10
1.900000
 20
0.300000
 30
0.013397
 70
   192
  0
VERTEX
  8
block06
 10
1.900000
 20
0.250000
 30
0.000000
 70
   192
  0
VERTEX
  8
block06
 10
1.900000
 20
0.336603
 30
0.050000
 70
   192
  0
VERTEX
  8
block06
 10
1.800000
 20
0.350000
 30
0.100000
 70
   192
  0
VERTEX
  8
block06
 10
0.700000
 20
0.350000
 30
1.400000
 70
   192
  0
VERTEX
  8
block06
 10
0.700000
 20
0.350000
 30
0.100000
 70
   192
  0
VERTEX
  8
block06
 10
0.700000
 20
0.100000
 30
1.400000
 70
   192
  0
VERTEX
  8
block06
 10
0.600000
 20
0.350000
 30
1.400000
 70
   192
  0
VERTEX
  8
block06
 10
0.700000
 20
0.100000
 30
0.000000
 70
   192
  0
VERTEX
  8
block06
 10
0.700000
 20
0.250000
 30
0.000000
 70
   192
  0
VERTEX
  8
block06
 10
0.600000
 20
0.100000
 30
0.000000
 70
   192
  0
VERTEX
  8
block06
 10
0.600000
 20
0.100000
 30
1.400000
 70
   192
  0
VERTEX
  8
block06
 10
0.600000
 20
0.250000
 30
0.000000
 70
   192
  0
VERTEX
  8
block06
 10
0.600000
 20
0.350000
 30
0.100000
 70
   192
  0
VERTEX
  8
block06
 10
0.600000
 20
0.300000
 30
0.013397
 70
   192
  0
VERTEX
  8
block06
 10
0.600000
 20
0.336603
 30
0.050000
 70
   192
  0
VERTEX
  8
block06
 10
0.700000
 20
0.336603
 30
0.050000
 70
   192
  0
VERTEX
  8
block06
 10
0.700000
 20
0.300000
 30
0.013397
 70
   192
  0
VERTEX
  8
block06
 10
0.350000
 20
0.600000
 30
0.100000
 70
   192
  0
VERTEX
  8
block06
 10
0.350000
 20
0.600000
 30
1.400000
 70
   192
  0
VERTEX
  8
block06
 10
0.350000
 20
0.700000
 30
1.400000
 70
   192
  0
VERTEX
  8
block06
 10
0.100000
 20
0.600000
 30
1.400000
 70
   192
  0
VERTEX
  8
block06
 10
0.300000
 20
0.600000
 30
0.013397
 70
   192
  0
VERTEX
  8
block06
 10
0.100000
 20
0.600000
 30
0.000000
 70
   192
  0
VERTEX
  8
block06
 10
0.100000
 20
0.700000
 30
1.400000
 70
   192
  0
VERTEX
  8
block06
 10
0.100000
 20
0.700000
 30
0.000000
 70
   192
  0
VERTEX
  8
block06
 10
0.336603
 20
0.600000
 30
0.050000
 70
   192
  0
VERTEX
  8
block06
 10
0.300000
 20
0.700000
 30
0.013397
 70
   192
  0
VERTEX
  8
block06
 10
0.250000
 20
0.700000
 30
0.000000
 70
   192
  0
VERTEX
  8
block06
 10
0.250000
 20
0.600000
 30
0.000000
 70
   192
  0
VERTEX
  8
block06
 10
0.336603
 20
0.700000
 30
0.050000
 70
   192
  0
VERTEX
  8
block06
 10
0.350000
 20
0.700000
 30
0.100000
 70
   192
  0
VERTEX
  8
block06
 10
1.200000
 20
0.400000
 30
1.400000
 70
   192
  0
VERTEX
  8
block06
 10
1.200000
 20
0.100000
 30
1.400000
 70
   192
  0
VERTEX
  8
block06
 10
1.200000
 20
0.100000
 30
0.000000
 70
   192
  0
VERTEX
  8
block06
 10
1.300000
 20
0.400000
 30
0.000000
 70
   192
  0
VERTEX
  8
block06
 10
1.200000
 20
0.400000
 30
0.000000
 70
   192
  0
VERTEX
  8
block06
 10
1.300000
 20
0.100000
 30
0.000000
 70
   192
  0
VERTEX
  8
block06
 10
1.300000
 20
0.100000
 30
1.400000
 70
   192
  0
VERTEX
  8
block06
 10
1.300000
 20
0.400000
 30
1.400000
 70
   192
  0
VERTEX
  8
block06
 10
1.033494
 20
0.500000
 30
0.000000
 70
   192
  0
VERTEX
  8
block06
 10
1.423205
 20
0.725000
 30
0.000000
 70
   192
  0
VERTEX
  8
block06
 10
1.350000
 20
0.798205
 30
0.000000
 70
   192
  0
VERTEX
  8
block06
 10
1.375000
 20
0.841506
 30
0.000000
 70
   192
  0
VERTEX
  8
block06
 10
1.125000
 20
0.408494
 30
0.000000
 70
   192
  0
VERTEX
  8
block06
 10
1.250000
 20
0.425000
 30
0.000000
 70
   192
  0
VERTEX
  8
block06
 10
1.250000
 20
0.375000
 30
0.000000
 70
   192
  0
VERTEX
  8
block06
 10
1.375000
 20
0.408494
 30
0.000000
 70
   192
  0
VERTEX
  8
block06
 10
1.050000
 20
0.625000
 30
0.000000
 70
   192
  0
VERTEX
  8
block06
 10
1.125000
 20
0.841506
 30
0.000000
 70
   192
  0
VERTEX
  8
block06
 10
1.250000
 20
0.875000
 30
0.000000
 70
   192
  0
VERTEX
  8
block06
 10
1.350000
 20
0.451795
 30
0.000000
 70
   192
  0
VERTEX
  8
block06
 10
1.466506
 20
0.500000
 30
0.000000
 70
   192
  0
VERTEX
  8
block06
 10
1.423205
 20
0.525000
 30
1.400000
 70
   192
  0
VERTEX
  8
block06
 10
1.350000
 20
0.451795
 30
1.400000
 70
   192
  0
VERTEX
  8
block06
 10
1.125000
 20
0.408494
 30
1.400000
 70
   192
  0
VERTEX
  8
block06
 10
1.033494
 20
0.500000
 30
1.400000
 70
   192
  0
VERTEX
  8
block06
 10
1.076795
 20
0.525000
 30
1.400000
 70
   192
  0
VERTEX
  8
block06
 10
1.000000
 20
0.625000
 30
1.400000
 70
   192
  0
VERTEX
  8
block06
 10
1.466506
 20
0.750000
 30
1.400000
 70
   192
  0
VERTEX
  8
block06
 10
1.375000
 20
0.841506
 30
1.400000
 70
   192
  0
VERTEX
  8
block06
 10
1.250000
 20
0.875000
 30
1.400000
 70
   192
  0
VERTEX
  8
block06
 10
1.250000
 20
0.825000
 30
1.400000
 70
   192
  0
VERTEX
  8
block06
 10
1.250000
 20
0.375000
 30
1.400000
 70
   192
  0
VERTEX
  8
block06
 10
1.250000
 20
0.425000
 30
1.400000
 70
   192
  0
VERTEX
  8
block06
 10
1.423205
 20
0.725000
 30
1.400000
 70
   192
  0
VERTEX
  8
block06
 10
1.375000
 20
0.408494
 30
1.400000
 70
   192
  0
VERTEX
  8
block06
 10
1.125000
 20
0.841506
 30
1.400000
 70
   192
  0
VERTEX
  8
block06
 10
1.033494
 20
0.750000
 30
0.000000
 70
   192
  0
VERTEX
  8
block06
 10
1.466506
 20
0.750000
 30
0.000000
 70
   192
  0
VERTEX
  8
block06
 10
1.500000
 20
0.625000
 30
1.400000
 70
   192
  0
VERTEX
  8
block06
 10
1.000000
 20
0.625000
 30
0.000000
 70
   192
  0
VERTEX
  8
block06
 10
1.033494
 20
0.750000
 30
1.400000
 70
   192
  0
VERTEX
  8
block06
 10
1.500000
 20
0.625000
 30
0.000000
 70
   192
  0
VERTEX
  8
block06
 10
1.466506
 20
0.500000
 30
1.400000
 70
   192
  0
VERTEX
  8
block06
 10
1.450000
 20
0.625000
 30
0.000000
 70
   192
  0
VERTEX
  8
block06
 10
1.450000
 20
0.625000
 30
1.400000
 70
   192
  0
VERTEX
  8
block06
 10
1.350000
 20
0.798205
 30
1.400000
 70
   192
  0
VERTEX
  8
block06
 10
1.250000
 20
0.825000
 30
0.000000
 70
   192
  0
VERTEX
  8
block06
 10
1.150000
 20
0.798205
 30
0.000000
 70
   192
  0
VERTEX
  8
block06
 10
1.050000
 20
0.625000
 30
1.400000
 70
   192
  0
VERTEX
  8
block06
 10
1.150000
 20
0.451795
 30
0.000000
 70
   192
  0
VERTEX
  8
block06
 10
1.423205
 20
0.525000
 30
0.000000
 70
   192
  0
VERTEX
  8
block06
 10
1.150000
 20
0.451795
 30
1.400000
 70
   192
  0
VERTEX
  8
block06
 10
1.076795
 20
0.525000
 30
0.000000
 70
   192
  0
VERTEX
  8
block06
 10
1.150000
 20
0.798205
 30
1.400000
 70
   192
  0
VERTEX
  8
block06
 10
1.076795
 20
0.725000
 30
0.000000
 70
   192
  0
VERTEX
  8
block06
 10
1.076795
 20
0.725000
 30
1.400000
 70
   192
  0
VERTEX
  8
block06
 10
0.600000
 20
0.950000
 30
1.500000
 70
   192
  0
VERTEX
  8
block06
 10
0.859808
 20
0.750000
 30
1.500000
 70
   192
  0
VERTEX
  8
block06
 10
0.950000
 20
0.600000
 30
1.500000
 70
   192
  0
VERTEX
  8
block06
 10
0.300000
 20
0.600000
 30
1.500000
 70
   192
  0
VERTEX
  8
block06
 10
0.250000
 20
0.600000
 30
1.500000
 70
   192
  0
VERTEX
  8
block06
 10
0.425000
 20
0.296891
 30
1.500000
 70
   192
  0
VERTEX
  8
block06
 10
0.775000
 20
0.296891
 30
1.500000
 70
   192
  0
VERTEX
  8
block06
 10
0.340192
 20
0.750000
 30
1.500000
 70
   192
  0
VERTEX
  8
block06
 10
0.600000
 20
0.900000
 30
1.500000
 70
   192
  0
VERTEX
  8
block06
 10
0.903109
 20
0.425000
 30
1.500000
 70
   192
  0
VERTEX
  8
block06
 10
0.903109
 20
0.775000
 30
1.500000
 70
   192
  0
VERTEX
  8
block06
 10
0.775000
 20
0.903109
 30
1.500000
 70
   192
  0
VERTEX
  8
block06
 10
0.425000
 20
0.903109
 30
1.500000
 70
   192
  0
VERTEX
  8
block06
 10
0.775000
 20
0.296891
 30
1.725000
 70
   192
  0
VERTEX
  8
block06
 10
0.950000
 20
0.600000
 30
1.725000
 70
   192
  0
VERTEX
  8
block06
 10
0.903109
 20
0.775000
 30
1.725000
 70
   192
  0
VERTEX
  8
block06
 10
0.600000
 20
0.250000
 30
1.500000
 70
   192
  0
VERTEX
  8
block06
 10
0.296891
 20
0.425000
 30
1.725000
 70
   192
  0
VERTEX
  8
block06
 10
0.296891
 20
0.425000
 30
1.500000
 70
   192
  0
VERTEX
  8
block06
 10
0.296891
 20
0.775000
 30
1.725000
 70
   192
  0
VERTEX
  8
block06
 10
0.296891
 20
0.775000
 30
1.500000
 70
   192
  0
VERTEX
  8
block06
 10
0.600000
 20
0.950000
 30
1.725000
 70
   192
  0
VERTEX
  8
block06
 10
0.600000
 20
0.903349
 30
1.737500
 70
   192
  0
VERTEX
  8
block06
 10
0.600000
 20
0.912500
 30
1.746651
 70
   192
  0
VERTEX
  8
block06
 10
0.768750
 20
0.892284
 30
1.746651
 70
   192
  0
VERTEX
  8
block06
 10
0.762500
 20
0.881458
 30
1.750000
 70
   192
  0
VERTEX
  8
block06
 10
0.600000
 20
0.937500
 30
1.746651
 70
   192
  0
VERTEX
  8
block06
 10
0.329367
 20
0.756250
 30
1.746651
 70
   192
  0
VERTEX
  8
block06
 10
0.600000
 20
0.925000
 30
1.750000
 70
   192
  0
VERTEX
  8
block06
 10
0.443750
 20
0.870633
 30
1.746651
 70
   192
  0
VERTEX
  8
block06
 10
0.437500
 20
0.881458
 30
1.750000
 70
   192
  0
VERTEX
  8
block06
 10
0.318542
 20
0.762500
 30
1.750000
 70
   192
  0
VERTEX
  8
block06
 10
0.307716
 20
0.768750
 30
1.746651
 70
   192
  0
VERTEX
  8
block06
 10
0.262500
 20
0.600000
 30
1.746651
 70
   192
  0
VERTEX
  8
block06
 10
0.275000
 20
0.600000
 30
1.750000
 70
   192
  0
VERTEX
  8
block06
 10
0.296651
 20
0.600000
 30
1.737500
 70
   192
  0
VERTEX
  8
block06
 10
0.287500
 20
0.600000
 30
1.746651
 70
   192
  0
VERTEX
  8
block06
 10
0.431250
 20
0.307716
 30
1.746651
 70
   192
  0
VERTEX
  8
block06
 10
0.318542
 20
0.437500
 30
1.750000
 70
   192
  0
VERTEX
  8
block06
 10
0.443750
 20
0.329367
 30
1.746651
 70
   192
  0
VERTEX
  8
block06
 10
0.437500
 20
0.318542
 30
1.750000
 70
   192
  0
VERTEX
  8
block06
 10
0.600000
 20
0.287500
 30
1.746651
 70
   192
  0
VERTEX
  8
block06
 10
0.426675
 20
0.299792
 30
1.737500
 70
   192
  0
VERTEX
  8
block06
 10
0.600000
 20
0.275000
 30
1.750000
 70
   192
  0
VERTEX
  8
block06
 10
0.768750
 20
0.307716
 30
1.746651
 70
   192
  0
VERTEX
  8
block06
 10
0.600000
 20
0.262500
 30
1.746651
 70
   192
  0
VERTEX
  8
block06
 10
0.773325
 20
0.299792
 30
1.737500
 70
   192
  0
VERTEX
  8
block06
 10
0.756250
 20
0.329367
 30
1.746651
 70
   192
  0
VERTEX
  8
block06
 10
0.762500
 20
0.318542
 30
1.750000
 70
   192
  0
VERTEX
  8
block06
 10
0.881458
 20
0.437500
 30
1.750000
 70
   192
  0
VERTEX
  8
block06
 10
0.892284
 20
0.768750
 30
1.746651
 70
   192
  0
VERTEX
  8
block06
 10
0.900208
 20
0.773325
 30
1.737500
 70
   192
  0
VERTEX
  8
block06
 10
0.448325
 20
0.337292
 30
1.737500
 70
   192
  0
VERTEX
  8
block06
 10
0.329367
 20
0.443750
 30
1.746651
 70
   192
  0
VERTEX
  8
block06
 10
0.337292
 20
0.448325
 30
1.737500
 70
   192
  0
VERTEX
  8
block06
 10
0.450000
 20
0.340192
 30
1.725000
 70
   192
  0
VERTEX
  8
block06
 10
0.946651
 20
0.600000
 30
1.737500
 70
   192
  0
VERTEX
  8
block06
 10
0.900208
 20
0.426675
 30
1.737500
 70
   192
  0
VERTEX
  8
block06
 10
0.892284
 20
0.431250
 30
1.746651
 70
   192
  0
VERTEX
  8
block06
 10
0.881458
 20
0.762500
 30
1.750000
 70
   192
  0
VERTEX
  8
block06
 10
0.937500
 20
0.600000
 30
1.746651
 70
   192
  0
VERTEX
  8
block06
 10
0.912500
 20
0.600000
 30
1.746651
 70
   192
  0
VERTEX
  8
block06
 10
0.925000
 20
0.600000
 30
1.750000
 70
   192
  0
VERTEX
  8
block06
 10
0.756250
 20
0.870633
 30
1.746651
 70
   192
  0
VERTEX
  8
block06
 10
0.870633
 20
0.756250
 30
1.746651
 70
   192
  0
VERTEX
  8
block06
 10
0.425000
 20
0.296891
 30
1.725000
 70
   192
  0
VERTEX
  8
block06
 10
0.600000
 20
0.253349
 30
1.737500
 70
   192
  0
VERTEX
  8
block06
 10
0.600000
 20
0.250000
 30
1.725000
 70
   192
  0
VERTEX
  8
block06
 10
0.250000
 20
0.600000
 30
1.725000
 70
   192
  0
VERTEX
  8
block06
 10
0.307716
 20
0.431250
 30
1.746651
 70
   192
  0
VERTEX
  8
block06
 10
0.299792
 20
0.426675
 30
1.737500
 70
   192
  0
VERTEX
  8
block06
 10
0.299792
 20
0.773325
 30
1.737500
 70
   192
  0
VERTEX
  8
block06
 10
0.431250
 20
0.892284
 30
1.746651
 70
   192
  0
VERTEX
  8
block06
 10
0.253349
 20
0.600000
 30
1.737500
 70
   192
  0
VERTEX
  8
block06
 10
0.425000
 20
0.903109
 30
1.725000
 70
   192
  0
VERTEX
  8
block06
 10
0.773325
 20
0.900208
 30
1.737500
 70
   192
  0
VERTEX
  8
block06
 10
0.426675
 20
0.900208
 30
1.737500
 70
   192
  0
VERTEX
  8
block06
 10
0.600000
 20
0.946651
 30
1.737500
 70
   192
  0
VERTEX
  8
block06
 10
0.775000
 20
0.903109
 30
1.725000
 70
   192
  0
VERTEX
  8
block06
 10
0.903109
 20
0.425000
 30
1.725000
 70
   192
  0
VERTEX
  8
block06
 10
0.903349
 20
0.600000
 30
1.737500
 70
   192
  0
VERTEX
  8
block06
 10
0.862708
 20
0.751675
 30
1.737500
 70
   192
  0
VERTEX
  8
block06
 10
0.750000
 20
0.859808
 30
1.725000
 70
   192
  0
VERTEX
  8
block06
 10
0.751675
 20
0.862708
 30
1.737500
 70
   192
  0
VERTEX
  8
block06
 10
0.337292
 20
0.751675
 30
1.737500
 70
   192
  0
VERTEX
  8
block06
 10
0.448325
 20
0.862708
 30
1.737500
 70
   192
  0
VERTEX
  8
block06
 10
0.750000
 20
0.340192
 30
1.725000
 70
   192
  0
VERTEX
  8
block06
 10
0.600000
 20
0.296651
 30
1.737500
 70
   192
  0
VERTEX
  8
block06
 10
0.751675
 20
0.337292
 30
1.737500
 70
   192
  0
VERTEX
  8
block06
 10
0.870633
 20
0.443750
 30
1.746651
 70
   192
  0
VERTEX
  8
block06
 10
0.862708
 20
0.448325
 30
1.737500
 70
   192
  0
VERTEX
  8
block06
 10
0.900000
 20
0.600000
 30
1.725000
 70
   192
  0
VERTEX
  8
block06
 10
0.600000
 20
0.300000
 30
1.725000
 70
   192
  0
VERTEX
  8
block06
 10
0.600000
 20
0.300000
 30
1.500000
 70
   192
  0
VERTEX
  8
block06
 10
0.450000
 20
0.340192
 30
1.500000
 70
   192
  0
VERTEX
  8
block06
 10
0.300000
 20
0.600000
 30
1.725000
 70
   192
  0
VERTEX
  8
block06
 10
0.450000
 20
0.859808
 30
1.500000
 70
   192
  0
VERTEX
  8
block06
 10
0.450000
 20
0.859808
 30
1.725000
 70
   192
  0
VERTEX
  8
block06
 10
0.750000
 20
0.859808
 30
1.500000
 70
   192
  0
VERTEX
  8
block06
 10
0.859808
 20
0.750000
 30
1.725000
 70
   192
  0
VERTEX
  8
block06
 10
0.600000
 20
0.900000
 30
1.725000
 70
   192
  0
VERTEX
  8
block06
 10
0.340192
 20
0.750000
 30
1.725000
 70
   192
  0
VERTEX
  8
block06
 10
0.340192
 20
0.450000
 30
1.725000
 70
   192
  0
VERTEX
  8
block06
 10
0.340192
 20
0.450000
 30
1.500000
 70
   192
  0
VERTEX
  8
block06
 10
0.750000
 20
0.340192
 30
1.500000
 70
   192
  0
VERTEX
  8
block06
 10
0.859808
 20
0.450000
 30
1.725000
 70
   192
  0
VERTEX
  8
block06
 10
0.900000
 20
0.600000
 30
1.500000
 70
   192
  0
VERTEX
  8
block06
 10
0.859808
 20
0.450000
 30
1.500000
 70
   192
  0
VERTEX
  8
block06
 10
0.100000
 20
1.250000
 30
1.400000
 70
   192
  0
VERTEX
  8
block06
 10
2.400000
 20
1.250000
 30
0.000000
 70
   192
  0
VERTEX
  8
block06
 10
2.400000
 20
1.250000
 30
1.400000
 70
   192
  0
VERTEX
  8
block06
 10
0.000000
 20
0.100000
 30
1.400000
 70
   192
  0
VERTEX
  8
block06
 10
0.000000
 20
1.150000
 30
1.400000
 70
   192
  0
VERTEX
  8
block06
 10
0.100000
 20
1.250000
 30
0.000000
 70
   192
  0
VERTEX
  8
block06
 10
0.013397
 20
1.200000
 30
0.000000
 70
   192
  0
VERTEX
  8
block06
 10
0.100000
 20
1.150000
 30
0.000000
 70
   192
  0
VERTEX
  8
block06
 10
0.100000
 20
0.100000
 30
0.000000
 70
   192
  0
VERTEX
  8
block06
 10
0.050000
 20
0.013397
 30
0.000000
 70
   192
  0
VERTEX
  8
block06
 10
2.400000
 20
0.100000
 30
0.000000
 70
   192
  0
VERTEX
  8
block06
 10
2.486603
 20
1.200000
 30
0.000000
 70
   192
  0
VERTEX
  8
block06
 10
2.450000
 20
1.236603
 30
0.000000
 70
   192
  0
VERTEX
  8
block06
 10
2.400000
 20
1.150000
 30
0.000000
 70
   192
  0
VERTEX
  8
block06
 10
0.100000
 20
1.150000
 30
1.400000
 70
   192
  0
VERTEX
  8
block06
 10
2.400000
 20
1.150000
 30
1.400000
 70
   192
  0
VERTEX
  8
block06
 10
2.400000
 20
0.100000
 30
1.400000
 70
   192
  0
VERTEX
  8
block06
 10
0.100000
 20
0.100000
 30
1.400000
 70
   192
  0
VERTEX
  8
block06
 10
0.100000
 20
0.000000
 30
1.400000
 70
   192
  0
VERTEX
  8
block06
 10
0.100000
 20
0.000000
 30
0.000000
 70
   192
  0
VERTEX
  8
block06
 10
2.400000
 20
0.000000
 30
1.400000
 70
   192
  0
VERTEX
  8
block06
 10
2.500000
 20
1.150000
 30
1.400000
 70
   192
  0
VERTEX
  8
block06
 10
2.500000
 20
1.150000
 30
0.000000
 70
   192
  0
VERTEX
  8
block06
 10
0.000000
 20
0.100000
 30
0.000000
 70
   192
  0
VERTEX
  8
block06
 10
0.013397
 20
0.050000
 30
1.400000
 70
   192
  0
VERTEX
  8
block06
 10
0.013397
 20
0.050000
 30
0.000000
 70
   192
  0
VERTEX
  8
block06
 10
2.450000
 20
0.013397
 30
0.000000
 70
   192
  0
VERTEX
  8
block06
 10
2.486603
 20
0.050000
 30
0.000000
 70
   192
  0
VERTEX
  8
block06
 10
2.486603
 20
0.050000
 30
1.400000
 70
   192
  0
VERTEX
  8
block06
 10
2.500000
 20
0.100000
 30
0.000000
 70
   192
  0
VERTEX
  8
block06
 10
2.450000
 20
0.013397
 30
1.400000
 70
   192
  0
VERTEX
  8
block06
 10
2.400000
 20
0.000000
 30
0.000000
 70
   192
  0
VERTEX
  8
block06
 10
0.100000
 20
0.013397
 30
1.450000
 70
   192
  0
VERTEX
  8
block06
 10
2.400000
 20
0.013397
 30
1.450000
 70
   192
  0
VERTEX
  8
block06
 10
0.013397
 20
1.150000
 30
1.450000
 70
   192
  0
VERTEX
  8
block06
 10
0.013397
 20
0.100000
 30
1.450000
 70
   192
  0
VERTEX
  8
block06
 10
0.050000
 20
1.236603
 30
0.000000
 70
   192
  0
VERTEX
  8
block06
 10
0.000000
 20
1.150000
 30
0.000000
 70
   192
  0
VERTEX
  8
block06
 10
2.450000
 20
1.236603
 30
1.400000
 70
   192
  0
VERTEX
  8
block06
 10
2.486603
 20
1.200000
 30
1.400000
 70
   192
  0
VERTEX
  8
block06
 10
2.400000
 20
0.100000
 30
1.500000
 70
   192
  0
VERTEX
  8
block06
 10
2.450000
 20
0.100000
 30
1.486603
 70
   192
  0
VERTEX
  8
block06
 10
0.100000
 20
1.200000
 30
1.486603
 70
   192
  0
VERTEX
  8
block06
 10
2.400000
 20
1.150000
 30
1.500000
 70
   192
  0
VERTEX
  8
block06
 10
2.400000
 20
1.200000
 30
1.486603
 70
   192
  0
VERTEX
  8
block06
 10
0.100000
 20
1.236603
 30
1.450000
 70
   192
  0
VERTEX
  8
block06
 10
2.443301
 20
1.225000
 30
1.450000
 70
   192
  0
VERTEX
  8
block06
 10
2.443301
 20
1.175000
 30
1.486603
 70
   192
  0
VERTEX
  8
block06
 10
2.425000
 20
1.193301
 30
1.486603
 70
   192
  0
VERTEX
  8
block06
 10
2.400000
 20
1.236603
 30
1.450000
 70
   192
  0
VERTEX
  8
block06
 10
2.450000
 20
1.150000
 30
1.486603
 70
   192
  0
VERTEX
  8
block06
 10
2.486603
 20
1.150000
 30
1.450000
 70
   192
  0
VERTEX
  8
block06
 10
2.475000
 20
1.193301
 30
1.450000
 70
   192
  0
VERTEX
  8
block06
 10
0.100000
 20
1.150000
 30
1.500000
 70
   192
  0
VERTEX
  8
block06
 10
0.050000
 20
1.150000
 30
1.486603
 70
   192
  0
VERTEX
  8
block06
 10
0.056699
 20
1.175000
 30
1.486603
 70
   192
  0
VERTEX
  8
block06
 10
0.075000
 20
1.193301
 30
1.486603
 70
   192
  0
VERTEX
  8
block06
 10
0.025000
 20
1.193301
 30
1.450000
 70
   192
  0
VERTEX
  8
block06
 10
0.056699
 20
1.225000
 30
1.450000
 70
   192
  0
VERTEX
  8
block06
 10
0.050000
 20
1.236603
 30
1.400000
 70
   192
  0
VERTEX
  8
block06
 10
0.013397
 20
1.200000
 30
1.400000
 70
   192
  0
VERTEX
  8
block06
 10
2.425000
 20
0.056699
 30
1.486603
 70
   192
  0
VERTEX
  8
block06
 10
2.400000
 20
0.050000
 30
1.486603
 70
   192
  0
VERTEX
  8
block06
 10
2.486603
 20
0.100000
 30
1.450000
 70
   192
  0
VERTEX
  8
block06
 10
2.443301
 20
0.075000
 30
1.486603
 70
   192
  0
VERTEX
  8
block06
 10
2.475000
 20
0.056699
 30
1.450000
 70
   192
  0
VERTEX
  8
block06
 10
2.500000
 20
0.100000
 30
1.400000
 70
   192
  0
VERTEX
  8
block06
 10
2.443301
 20
0.025000
 30
1.450000
 70
   192
  0
VERTEX
  8
block06
 10
0.050000
 20
0.100000
 30
1.486603
 70
   192
  0
VERTEX
  8
block06
 10
0.056699
 20
0.025000
 30
1.450000
 70
   192
  0
VERTEX
  8
block06
 10
0.100000
 20
0.050000
 30
1.486603
 70
   192
  0
VERTEX
  8
block06
 10
0.100000
 20
0.100000
 30
1.500000
 70
   192
  0
VERTEX
  8
block06
 10
0.056699
 20
0.075000
 30
1.486603
 70
   192
  0
VERTEX
  8
block06
 10
0.025000
 20
0.056699
 30
1.450000
 70
   192
  0
VERTEX
  8
block06
 10
0.075000
 20
0.056699
 30
1.486603
 70
   192
  0
VERTEX
  8
block06
 10
0.050000
 20
0.013397
 30
1.400000
 70
   192
  0
VERTEX
  8
block06
 10
0.000000
 20
0.000000
 30
0.000000
 70
   128
 71
     1
 72
     8
 73
     2
  0
VERTEX
  8
block06
 10
0.000000
 20
0.000000
 30
0.000000
 70
   128
 71
     1
 72
     2
 73
     3
  0
VERTEX
  8
block06
 10
0.000000
 20
0.000000
 30
0.000000
 70
   128
 71
     7
 72
     5
 73
     4
  0
VERTEX
  8
block06
 10
0.000000
 20
0.000000
 30
0.000000
 70
   128
 71
     1
 72
     9
 73
     5
  0
VERTEX
  8
block06
 10
0.000000
 20
0.000000
 30
0.000000
 70
   128
 71
     4
 72
     5
 73
     6
  0
VERTEX
  8
block06
 10
0.000000
 20
0.000000
 30
0.000000
 70
   128
 71
     1
 72
     5
 73
     8
  0
VERTEX
  8
block06
 10
0.000000
 20
0.000000
 30
0.000000
 70
   128
 71
     5
 72
     7
 73
     8
  0
VERTEX
  8
block06
 10
0.000000
 20
0.000000
 30
0.000000
 70
   128
 71
     5
 72
     9
 73
    10
  0
VERTEX
  8
block06
 10
0.000000
 20
0.000000
 30
0.000000
 70
   128
 71
     5
 72
    10
 73
    11
  0
VERTEX
  8
block06
 10
0.000000
 20
0.000000
 30
0.000000
 70
   128
 71
     3
 72
    10
 73
     9
  0
VERTEX
  8
block06
 10
0.000000
 20
0.000000
 30
0.000000
 70
   128
 71
     3
 72
     9
 73
     1
  0
VERTEX
  8
block06
 10
0.000000
 20
0.000000
 30
0.000000
 70
   128
 71
    12
 72
     2
 73
     8
  0
VERTEX
  8
block06
 10
0.000000
 20
0.000000
 30
0.000000
 70
   128
 71
    12
 72
     8
 73
     7
  0
VERTEX
  8
block06
 10
0.000000
 20
0.000000
 30
0.000000
 70
   128
 71
    11
 72
    10
 73
     3
  0
VERTEX
  8
block06
 10
0.000000
 20
0.000000
 30
0.000000
 70
   128
 71
    11
 72
     3
 73
     2
  0
VERTEX
  8
block06
 10
0.000000
 20
0.000000
 30
0.000000
 70
   128
 71
    11
 72
     2
 73
    12
  0
VERTEX
  8
block06
 10
0.000000
 20
0.000000
 30
0.000000
 70
   128
 71
    11
 72
    12
 73
    13
  0
VERTEX
  8
block06
 10
0.000000
 20
0.000000
 30
0.000000
 70
   128
 71
    11
 72
    13
 73
    14
  0
VERTEX
  8
block06
 10
0.000000
 20
0.000000
 30
0.000000
 70
   128
 71
     6
 72
    14
 73
     4
  0
VERTEX
  8
block06
 10
0.000000
 20
0.000000
 30
0.000000
 70
   128
 71
     4
 72
    14
 73
    13
  0
VERTEX
  8
block06
 10
0.000000
 20
0.000000
 30
0.000000
 70
   128
 71
    13
 72
    12
 73
     7
  0
VERTEX
  8
block06
 10
0.000000
 20
0.000000
 30
0.000000
 70
   128
 71
     4
 72
    13
 73
     7
  0
VERTEX
  8
block06
 10
0.000000
 20
0.000000
 30
0.000000
 70
   128
 71
    14
 72
     6
 73
    11
  0
VERTEX
  8
block06
 10
0.000000
 20
0.000000
 30
0.000000
 70
   128
 71
    11
 72
     6
 73
     5
  0
VERTEX
  8
block06
 10
0.000000
 20
0.000000
 30
0.000000
 70
   128
 71
    16
 72
    18
 73
    15
  0
VERTEX
  8
block06
 10
0.000000
 20
0.000000
 30
0.000000
 70
   128
 71
    16
 72
    15
 73
    21
  0
VERTEX
  8
block06
 10
0.000000
 20
0.000000
 30
0.000000
 70
   128
 71
    22
 72
    19
 73
    18
  0
VERTEX
  8
block06
 10
0.000000
 20
0.000000
 30
0.000000
 70
   128
 71
    22
 72
    18
 73
    16
  0
VERTEX
  8
block06
 10
0.000000
 20
0.000000
 30
0.000000
 70
   128
 71
    17
 72
    20
 73
    19
  0
VERTEX
  8
block06
 10
0.000000
 20
0.000000
 30
0.000000
 70
   128
 71
    17
 72
    19
 73
    22
  0
VERTEX
  8
block06
 10
0.000000
 20
0.000000
 30
0.000000
 70
   128
 71
    21
 72
    15
 73
    20
  0
VERTEX
  8
block06
 10
0.000000
 20
0.000000
 30
0.000000
 70
   128
 71
    21
 72
    20
 73
    17
  0
VERTEX
  8
block06
 10
0.000000
 20
0.000000
 30
0.000000
 70
   128
 71
    18
 72
    19
 73
    20
  0
VERTEX
  8
block06
 10
0.000000
 20
0.000000
 30
0.000000
 70
   128
 71
    18
 72
    20
 73
    15
  0
VERTEX
  8
block06
 10
0.000000
 20
0.000000
 30
0.000000
 70
   128
 71
    21
 72
    17
 73
    22
  0
VERTEX
  8
block06
 10
0.000000
 20
0.000000
 30
0.000000
 70
   128
 71
    21
 72
    22
 73
    16
  0
VERTEX
  8
block06
 10
0.000000
 20
0.000000
 30
0.000000
 70
   128
 71
    23
 72
    28
 73
    27
  0
VERTEX
  8
block06
 10
0.000000
 20
0.000000
 30
0.000000
 70
   128
 71
    23
 72
    27
 73
    26
  0
VERTEX
  8
block06
 10
0.000000
 20
0.000000
 30
0.000000
 70
   128
 71
    23
 72
    26
 73
    24
  0
VERTEX
  8
block06
 10
0.000000
 20
0.000000
 30
0.000000
 70
   128
 71
    23
 72
    24
 73
    25
  0
VERTEX
  8
block06
 10
0.000000
 20
0.000000
 30
0.000000
 70
   128
 71
    23
 72
    25
 73
    33
  0
VERTEX
  8
block06
 10
0.000000
 20
0.000000
 30
0.000000
 70
   128
 71
    29
 72
    32
 73
    26
  0
VERTEX
  8
block06
 10
0.000000
 20
0.000000
 30
0.000000
 70
   128
 71
    29
 72
    26
 73
    27
  0
VERTEX
  8
block06
 10
0.000000
 20
0.000000
 30
0.000000
 70
   128
 71
    26
 72
    32
 73
    34
  0
VERTEX
  8
block06
 10
0.000000
 20
0.000000
 30
0.000000
 70
   128
 71
    26
 72
    34
 73
    24
  0
VERTEX
  8
block06
 10
0.000000
 20
0.000000
 30
0.000000
 70
   128
 71
    28
 72
    30
 73
    29
  0
VERTEX
  8
block06
 10
0.000000
 20
0.000000
 30
0.000000
 70
   128
 71
    28
 72
    29
 73
    27
  0
VERTEX
  8
block06
 10
0.000000
 20
0.000000
 30
0.000000
 70
   128
 71
    36
 72
    30
 73
    28
  0
VERTEX
  8
block06
 10
0.000000
 20
0.000000
 30
0.000000
 70
   128
 71
    36
 72
    28
 73
    23
  0
VERTEX
  8
block06
 10
0.000000
 20
0.000000
 30
0.000000
 70
   128
 71
    34
 72
    36
 73
    35
  0
VERTEX
  8
block06
 10
0.000000
 20
0.000000
 30
0.000000
 70
   128
 71
    29
 72
    30
 73
    36
  0
VERTEX
  8
block06
 10
0.000000
 20
0.000000
 30
0.000000
 70
   128
 71
    35
 72
    36
 73
    31
  0
VERTEX
  8
block06
 10
0.000000
 20
0.000000
 30
0.000000
 70
   128
 71
    29
 72
    36
 73
    32
  0
VERTEX
  8
block06
 10
0.000000
 20
0.000000
 30
0.000000
 70
   128
 71
    36
 72
    34
 73
    32
  0
VERTEX
  8
block06
 10
0.000000
 20
0.000000
 30
0.000000
 70
   128
 71
    31
 72
    33
 73
    35
  0
VERTEX
  8
block06
 10
0.000000
 20
0.000000
 30
0.000000
 70
   128
 71
    35
 72
    33
 73
    25
  0
VERTEX
  8
block06
 10
0.000000
 20
0.000000
 30
0.000000
 70
   128
 71
    25
 72
    24
 73
    34
  0
VERTEX
  8
block06
 10
0.000000
 20
0.000000
 30
0.000000
 70
   128
 71
    35
 72
    25
 73
    34
  0
VERTEX
  8
block06
 10
0.000000
 20
0.000000
 30
0.000000
 70
   128
 71
    33
 72
    31
 73
    23
  0
VERTEX
  8
block06
 10
0.000000
 20
0.000000
 30
0.000000
 70
   128
 71
    23
 72
    31
 73
    36
  0
VERTEX
  8
block06
 10
0.000000
 20
0.000000
 30
0.000000
 70
   128
 71
    49
 72
    42
 73
    37
  0
VERTEX
  8
block06
 10
0.000000
 20
0.000000
 30
0.000000
 70
   128
 71
    49
 72
    37
 73
    38
  0
VERTEX
  8
block06
 10
0.000000
 20
0.000000
 30
0.000000
 70
   128
 71
    49
 72
    38
 73
    39
  0
VERTEX
  8
block06
 10
0.000000
 20
0.000000
 30
0.000000
 70
   128
 71
    49
 72
    39
 73
    47
  0
VERTEX
  8
block06
 10
0.000000
 20
0.000000
 30
0.000000
 70
   128
 71
    49
 72
    47
 73
    48
  0
VERTEX
  8
block06
 10
0.000000
 20
0.000000
 30
0.000000
 70
   128
 71
    43
 72
    44
 73
    38
  0
VERTEX
  8
block06
 10
0.000000
 20
0.000000
 30
0.000000
 70
   128
 71
    43
 72
    38
 73
    37
  0
VERTEX
  8
block06
 10
0.000000
 20
0.000000
 30
0.000000
 70
   128
 71
    38
 72
    44
 73
    46
  0
VERTEX
  8
block06
 10
0.000000
 20
0.000000
 30
0.000000
 70
   128
 71
    38
 72
    46
 73
    39
  0
VERTEX
  8
block06
 10
0.000000
 20
0.000000
 30
0.000000
 70
   128
 71
    42
 72
    40
 73
    43
  0
VERTEX
  8
block06
 10
0.000000
 20
0.000000
 30
0.000000
 70
   128
 71
    42
 72
    43
 73
    37
  0
VERTEX
  8
block06
 10
0.000000
 20
0.000000
 30
0.000000
 70
   128
 71
    41
 72
    40
 73
    42
  0
VERTEX
  8
block06
 10
0.000000
 20
0.000000
 30
0.000000
 70
   128
 71
    41
 72
    42
 73
    49
  0
VERTEX
  8
block06
 10
0.000000
 20
0.000000
 30
0.000000
 70
   128
 71
    46
 72
    41
 73
    45
  0
VERTEX
  8
block06
 10
0.000000
 20
0.000000
 30
0.000000
 70
   128
 71
    43
 72
    40
 73
    41
  0
VERTEX
  8
block06
 10
0.000000
 20
0.000000
 30
0.000000
 70
   128
 71
    45
 72
    41
 73
    50
  0
VERTEX
  8
block06
 10
0.000000
 20
0.000000
 30
0.000000
 70
   128
 71
    43
 72
    41
 73
    44
  0
VERTEX
  8
block06
 10
0.000000
 20
0.000000
 30
0.000000
 70
   128
 71
    41
 72
    46
 73
    44
  0
VERTEX
  8
block06
 10
0.000000
 20
0.000000
 30
0.000000
 70
   128
 71
    50
 72
    48
 73
    45
  0
VERTEX
  8
block06
 10
0.000000
 20
0.000000
 30
0.000000
 70
   128
 71
    45
 72
    48
 73
    47
  0
VERTEX
  8
block06
 10
0.000000
 20
0.000000
 30
0.000000
 70
   128
 71
    47
 72
    39
 73
    46
  0
VERTEX
  8
block06
 10
0.000000
 20
0.000000
 30
0.000000
 70
   128
 71
    45
 72
    47
 73
    46
  0
VERTEX
  8
block06
 10
0.000000
 20
0.000000
 30
0.000000
 70
   128
 71
    48
 72
    50
 73
    49
  0
VERTEX
  8
block06
 10
0.000000
 20
0.000000
 30
0.000000
 70
   128
 71
    49
 72
    50
 73
    41
  0
VERTEX
  8
block06
 10
0.000000
 20
0.000000
 30
0.000000
 70
   128
 71
    62
 72
    51
 73
   152
  0
VERTEX
  8
block06
 10
0.000000
 20
0.000000
 30
0.000000
 70
   128
 71
    62
 72
   152
 73
   158
  0
VERTEX
  8
block06
 10
0.000000
 20
0.000000
 30
0.000000
 70
   128
 71
    52
 72
   158
 73
   157
  0
VERTEX
  8
block06
 10
0.000000
 20
0.000000
 30
0.000000
 70
   128
 71
    52
 72
   157
 73
    53
  0
VERTEX
  8
block06
 10
0.000000
 20
0.000000
 30
0.000000
 70
   128
 71
    69
 72
    53
 73
    54
  0
VERTEX
  8
block06
 10
0.000000
 20
0.000000
 30
0.000000
 70
   128
 71
    69
 72
    54
 73
    55
  0
VERTEX
  8
block06
 10
0.000000
 20
0.000000
 30
0.000000
 70
   128
 71
    61
 72
   155
 73
    66
  0
VERTEX
  8
block06
 10
0.000000
 20
0.000000
 30
0.000000
 70
   128
 71
    66
 72
   155
 73
    56
  0
VERTEX
  8
block06
 10
0.000000
 20
0.000000
 30
0.000000
 70
   128
 71
    60
 72
    57
 73
    58
  0
VERTEX
  8
block06
 10
0.000000
 20
0.000000
 30
0.000000
 70
   128
 71
    58
 72
    57
 73
    59
  0
VERTEX
  8
block06
 10
0.000000
 20
0.000000
 30
0.000000
 70
   128
 71
    58
 72
    59
 73
   154
  0
VERTEX
  8
block06
 10
0.000000
 20
0.000000
 30
0.000000
 70
   128
 71
    58
 72
   154
 73
    64
  0
VERTEX
  8
block06
 10
0.000000
 20
0.000000
 30
0.000000
 70
   128
 71
    57
 72
    60
 73
    56
  0
VERTEX
  8
block06
 10
0.000000
 20
0.000000
 30
0.000000
 70
   128
 71
    56
 72
    60
 73
    71
  0
VERTEX
  8
block06
 10
0.000000
 20
0.000000
 30
0.000000
 70
   128
 71
    66
 72
    56
 73
    71
  0
VERTEX
  8
block06
 10
0.000000
 20
0.000000
 30
0.000000
 70
   128
 71
   155
 72
    61
 73
    55
  0
VERTEX
  8
block06
 10
0.000000
 20
0.000000
 30
0.000000
 70
   128
 71
    69
 72
    55
 73
    61
  0
VERTEX
  8
block06
 10
0.000000
 20
0.000000
 30
0.000000
 70
   128
 71
    53
 72
    69
 73
    70
  0
VERTEX
  8
block06
 10
0.000000
 20
0.000000
 30
0.000000
 70
   128
 71
    52
 72
    53
 73
    70
  0
VERTEX
  8
block06
 10
0.000000
 20
0.000000
 30
0.000000
 70
   128
 71
    62
 72
   158
 73
    52
  0
VERTEX
  8
block06
 10
0.000000
 20
0.000000
 30
0.000000
 70
   128
 71
    64
 72
   154
 73
    72
  0
VERTEX
  8
block06
 10
0.000000
 20
0.000000
 30
0.000000
 70
   128
 71
   154
 72
    63
 73
    72
  0
VERTEX
  8
block06
 10
0.000000
 20
0.000000
 30
0.000000
 70
   128
 71
    63
 72
   152
 73
    72
  0
VERTEX
  8
block06
 10
0.000000
 20
0.000000
 30
0.000000
 70
   128
 71
   152
 72
    51
 73
    72
  0
VERTEX
  8
block06
 10
0.000000
 20
0.000000
 30
0.000000
 70
   128
 71
    62
 72
   131
 73
    51
  0
VERTEX
  8
block06
 10
0.000000
 20
0.000000
 30
0.000000
 70
   128
 71
    51
 72
   131
 73
   125
  0
VERTEX
  8
block06
 10
0.000000
 20
0.000000
 30
0.000000
 70
   128
 71
    72
 72
   127
 73
    64
  0
VERTEX
  8
block06
 10
0.000000
 20
0.000000
 30
0.000000
 70
   128
 71
    64
 72
   127
 73
   122
  0
VERTEX
  8
block06
 10
0.000000
 20
0.000000
 30
0.000000
 70
   128
 71
    58
 72
    65
 73
    60
  0
VERTEX
  8
block06
 10
0.000000
 20
0.000000
 30
0.000000
 70
   128
 71
    60
 72
    65
 73
    99
  0
VERTEX
  8
block06
 10
0.000000
 20
0.000000
 30
0.000000
 70
   128
 71
    71
 72
   121
 73
    66
  0
VERTEX
  8
block06
 10
0.000000
 20
0.000000
 30
0.000000
 70
   128
 71
    66
 72
   121
 73
    67
  0
VERTEX
  8
block06
 10
0.000000
 20
0.000000
 30
0.000000
 70
   128
 71
    61
 72
   117
 73
    69
  0
VERTEX
  8
block06
 10
0.000000
 20
0.000000
 30
0.000000
 70
   128
 71
    69
 72
   117
 73
    68
  0
VERTEX
  8
block06
 10
0.000000
 20
0.000000
 30
0.000000
 70
   128
 71
    70
 72
   128
 73
    52
  0
VERTEX
  8
block06
 10
0.000000
 20
0.000000
 30
0.000000
 70
   128
 71
    52
 72
   128
 73
   129
  0
VERTEX
  8
block06
 10
0.000000
 20
0.000000
 30
0.000000
 70
   128
 71
   131
 72
    62
 73
   129
  0
VERTEX
  8
block06
 10
0.000000
 20
0.000000
 30
0.000000
 70
   128
 71
    52
 72
   129
 73
    62
  0
VERTEX
  8
block06
 10
0.000000
 20
0.000000
 30
0.000000
 70
   128
 71
   128
 72
    70
 73
    68
  0
VERTEX
  8
block06
 10
0.000000
 20
0.000000
 30
0.000000
 70
   128
 71
    69
 72
    68
 73
    70
  0
VERTEX
  8
block06
 10
0.000000
 20
0.000000
 30
0.000000
 70
   128
 71
   117
 72
    61
 73
    67
  0
VERTEX
  8
block06
 10
0.000000
 20
0.000000
 30
0.000000
 70
   128
 71
    66
 72
    67
 73
    61
  0
VERTEX
  8
block06
 10
0.000000
 20
0.000000
 30
0.000000
 70
   128
 71
   121
 72
    71
 73
    99
  0
VERTEX
  8
block06
 10
0.000000
 20
0.000000
 30
0.000000
 70
   128
 71
    60
 72
    99
 73
    71
  0
VERTEX
  8
block06
 10
0.000000
 20
0.000000
 30
0.000000
 70
   128
 71
    65
 72
    58
 73
   122
  0
VERTEX
  8
block06
 10
0.000000
 20
0.000000
 30
0.000000
 70
   128
 71
    64
 72
   122
 73
    58
  0
VERTEX
  8
block06
 10
0.000000
 20
0.000000
 30
0.000000
 70
   128
 71
   127
 72
    72
 73
   125
  0
VERTEX
  8
block06
 10
0.000000
 20
0.000000
 30
0.000000
 70
   128
 71
    51
 72
   125
 73
    72
  0
VERTEX
  8
block06
 10
0.000000
 20
0.000000
 30
0.000000
 70
   128
 71
    73
 72
    75
 73
    77
  0
VERTEX
  8
block06
 10
0.000000
 20
0.000000
 30
0.000000
 70
   128
 71
    73
 72
    74
 73
    93
  0
VERTEX
  8
block06
 10
0.000000
 20
0.000000
 30
0.000000
 70
   128
 71
   133
 72
    75
 73
   105
  0
VERTEX
  8
block06
 10
0.000000
 20
0.000000
 30
0.000000
 70
   128
 71
    75
 72
    73
 73
   105
  0
VERTEX
  8
block06
 10
0.000000
 20
0.000000
 30
0.000000
 70
   128
 71
    74
 72
   123
 73
   101
  0
VERTEX
  8
block06
 10
0.000000
 20
0.000000
 30
0.000000
 70
   128
 71
   123
 72
    74
 73
    76
  0
VERTEX
  8
block06
 10
0.000000
 20
0.000000
 30
0.000000
 70
   128
 71
    74
 72
    73
 73
    76
  0
VERTEX
  8
block06
 10
0.000000
 20
0.000000
 30
0.000000
 70
   128
 71
    73
 72
    77
 73
    76
  0
VERTEX
  8
block06
 10
0.000000
 20
0.000000
 30
0.000000
 70
   128
 71
    81
 72
    77
 73
   135
  0
VERTEX
  8
block06
 10
0.000000
 20
0.000000
 30
0.000000
 70
   128
 71
    78
 72
   123
 73
    80
  0
VERTEX
  8
block06
 10
0.000000
 20
0.000000
 30
0.000000
 70
   128
 71
   123
 72
    76
 73
    80
  0
VERTEX
  8
block06
 10
0.000000
 20
0.000000
 30
0.000000
 70
   128
 71
    76
 72
    77
 73
    80
  0
VERTEX
  8
block06
 10
0.000000
 20
0.000000
 30
0.000000
 70
   128
 71
    77
 72
    81
 73
    80
  0
VERTEX
  8
block06
 10
0.000000
 20
0.000000
 30
0.000000
 70
   128
 71
    81
 72
   135
 73
    85
  0
VERTEX
  8
block06
 10
0.000000
 20
0.000000
 30
0.000000
 70
   128
 71
    78
 72
    82
 73
    98
  0
VERTEX
  8
block06
 10
0.000000
 20
0.000000
 30
0.000000
 70
   128
 71
   120
 72
    82
 73
    79
  0
VERTEX
  8
block06
 10
0.000000
 20
0.000000
 30
0.000000
 70
   128
 71
    82
 72
    78
 73
    79
  0
VERTEX
  8
block06
 10
0.000000
 20
0.000000
 30
0.000000
 70
   128
 71
    78
 72
    80
 73
    79
  0
VERTEX
  8
block06
 10
0.000000
 20
0.000000
 30
0.000000
 70
   128
 71
    80
 72
    81
 73
    79
  0
VERTEX
  8
block06
 10
0.000000
 20
0.000000
 30
0.000000
 70
   128
 71
    81
 72
    85
 73
    79
  0
VERTEX
  8
block06
 10
0.000000
 20
0.000000
 30
0.000000
 70
   128
 71
    98
 72
    82
 73
   118
  0
VERTEX
  8
block06
 10
0.000000
 20
0.000000
 30
0.000000
 70
   128
 71
    82
 72
   120
 73
   118
  0
VERTEX
  8
block06
 10
0.000000
 20
0.000000
 30
0.000000
 70
   128
 71
   141
 72
    83
 73
    84
  0
VERTEX
  8
block06
 10
0.000000
 20
0.000000
 30
0.000000
 70
   128
 71
   120
 72
    79
 73
    86
  0
VERTEX
  8
block06
 10
0.000000
 20
0.000000
 30
0.000000
 70
   128
 71
    79
 72
    85
 73
    86
  0
VERTEX
  8
block06
 10
0.000000
 20
0.000000
 30
0.000000
 70
   128
 71
    85
 72
    83
 73
    86
  0
VERTEX
  8
block06
 10
0.000000
 20
0.000000
 30
0.000000
 70
   128
 71
    83
 72
   141
 73
    86
  0
VERTEX
  8
block06
 10
0.000000
 20
0.000000
 30
0.000000
 70
   128
 71
   141
 72
    89
 73
    87
  0
VERTEX
  8
block06
 10
0.000000
 20
0.000000
 30
0.000000
 70
   128
 71
   120
 72
    86
 73
    87
  0
VERTEX
  8
block06
 10
0.000000
 20
0.000000
 30
0.000000
 70
   128
 71
    86
 72
   141
 73
    87
  0
VERTEX
  8
block06
 10
0.000000
 20
0.000000
 30
0.000000
 70
   128
 71
   120
 72
    87
 73
    88
  0
VERTEX
  8
block06
 10
0.000000
 20
0.000000
 30
0.000000
 70
   128
 71
    87
 72
    89
 73
    88
  0
VERTEX
  8
block06
 10
0.000000
 20
0.000000
 30
0.000000
 70
   128
 71
   113
 72
    88
 73
   114
  0
VERTEX
  8
block06
 10
0.000000
 20
0.000000
 30
0.000000
 70
   128
 71
    88
 72
    89
 73
   114
  0
VERTEX
  8
block06
 10
0.000000
 20
0.000000
 30
0.000000
 70
   128
 71
    89
 72
   141
 73
   145
  0
VERTEX
  8
block06
 10
0.000000
 20
0.000000
 30
0.000000
 70
   128
 71
   115
 72
   114
 73
    90
  0
VERTEX
  8
block06
 10
0.000000
 20
0.000000
 30
0.000000
 70
   128
 71
   114
 72
    89
 73
    90
  0
VERTEX
  8
block06
 10
0.000000
 20
0.000000
 30
0.000000
 70
   128
 71
    89
 72
   145
 73
    90
  0
VERTEX
  8
block06
 10
0.000000
 20
0.000000
 30
0.000000
 70
   128
 71
   145
 72
    91
 73
    90
  0
VERTEX
  8
block06
 10
0.000000
 20
0.000000
 30
0.000000
 70
   128
 71
   115
 72
   103
 73
   116
  0
VERTEX
  8
block06
 10
0.000000
 20
0.000000
 30
0.000000
 70
   128
 71
   103
 72
   102
 73
   116
  0
VERTEX
  8
block06
 10
0.000000
 20
0.000000
 30
0.000000
 70
   128
 71
    92
 72
    91
 73
   148
  0
VERTEX
  8
block06
 10
0.000000
 20
0.000000
 30
0.000000
 70
   128
 71
   103
 72
   115
 73
    94
  0
VERTEX
  8
block06
 10
0.000000
 20
0.000000
 30
0.000000
 70
   128
 71
   115
 72
    90
 73
    94
  0
VERTEX
  8
block06
 10
0.000000
 20
0.000000
 30
0.000000
 70
   128
 71
    90
 72
    91
 73
    94
  0
VERTEX
  8
block06
 10
0.000000
 20
0.000000
 30
0.000000
 70
   128
 71
    91
 72
    92
 73
    94
  0
VERTEX
  8
block06
 10
0.000000
 20
0.000000
 30
0.000000
 70
   128
 71
    93
 72
   130
 73
   106
  0
VERTEX
  8
block06
 10
0.000000
 20
0.000000
 30
0.000000
 70
   128
 71
   130
 72
   108
 73
   106
  0
VERTEX
  8
block06
 10
0.000000
 20
0.000000
 30
0.000000
 70
   128
 71
   108
 72
   103
 73
    96
  0
VERTEX
  8
block06
 10
0.000000
 20
0.000000
 30
0.000000
 70
   128
 71
   103
 72
    94
 73
    96
  0
VERTEX
  8
block06
 10
0.000000
 20
0.000000
 30
0.000000
 70
   128
 71
    94
 72
    92
 73
    96
  0
VERTEX
  8
block06
 10
0.000000
 20
0.000000
 30
0.000000
 70
   128
 71
    92
 72
    95
 73
    96
  0
VERTEX
  8
block06
 10
0.000000
 20
0.000000
 30
0.000000
 70
   128
 71
    68
 72
   116
 73
   128
  0
VERTEX
  8
block06
 10
0.000000
 20
0.000000
 30
0.000000
 70
   128
 71
   116
 72
   102
 73
   128
  0
VERTEX
  8
block06
 10
0.000000
 20
0.000000
 30
0.000000
 70
   128
 71
   150
 72
   148
 73
   143
  0
VERTEX
  8
block06
 10
0.000000
 20
0.000000
 30
0.000000
 70
   128
 71
   113
 72
   117
 73
    67
  0
VERTEX
  8
block06
 10
0.000000
 20
0.000000
 30
0.000000
 70
   128
 71
    97
 72
   146
 73
   156
  0
VERTEX
  8
block06
 10
0.000000
 20
0.000000
 30
0.000000
 70
   128
 71
   153
 72
    84
 73
   139
  0
VERTEX
  8
block06
 10
0.000000
 20
0.000000
 30
0.000000
 70
   128
 71
    65
 72
    98
 73
    99
  0
VERTEX
  8
block06
 10
0.000000
 20
0.000000
 30
0.000000
 70
   128
 71
    98
 72
   118
 73
    99
  0
VERTEX
  8
block06
 10
0.000000
 20
0.000000
 30
0.000000
 70
   128
 71
   100
 72
   135
 73
   138
  0
VERTEX
  8
block06
 10
0.000000
 20
0.000000
 30
0.000000
 70
   128
 71
   127
 72
   101
 73
   122
  0
VERTEX
  8
block06
 10
0.000000
 20
0.000000
 30
0.000000
 70
   128
 71
   136
 72
   133
 73
   132
  0
VERTEX
  8
block06
 10
0.000000
 20
0.000000
 30
0.000000
 70
   128
 71
   102
 72
   103
 73
   104
  0
VERTEX
  8
block06
 10
0.000000
 20
0.000000
 30
0.000000
 70
   128
 71
   103
 72
   108
 73
   104
  0
VERTEX
  8
block06
 10
0.000000
 20
0.000000
 30
0.000000
 70
   128
 71
   108
 72
   130
 73
   104
  0
VERTEX
  8
block06
 10
0.000000
 20
0.000000
 30
0.000000
 70
   128
 71
   125
 72
   131
 73
   130
  0
VERTEX
  8
block06
 10
0.000000
 20
0.000000
 30
0.000000
 70
   128
 71
   105
 72
    73
 73
   110
  0
VERTEX
  8
block06
 10
0.000000
 20
0.000000
 30
0.000000
 70
   128
 71
    73
 72
    93
 73
   110
  0
VERTEX
  8
block06
 10
0.000000
 20
0.000000
 30
0.000000
 70
   128
 71
    93
 72
   106
 73
   110
  0
VERTEX
  8
block06
 10
0.000000
 20
0.000000
 30
0.000000
 70
   128
 71
   111
 72
    95
 73
   107
  0
VERTEX
  8
block06
 10
0.000000
 20
0.000000
 30
0.000000
 70
   128
 71
   110
 72
   106
 73
   109
  0
VERTEX
  8
block06
 10
0.000000
 20
0.000000
 30
0.000000
 70
   128
 71
   106
 72
   108
 73
   109
  0
VERTEX
  8
block06
 10
0.000000
 20
0.000000
 30
0.000000
 70
   128
 71
   108
 72
    96
 73
   109
  0
VERTEX
  8
block06
 10
0.000000
 20
0.000000
 30
0.000000
 70
   128
 71
    96
 72
    95
 73
   109
  0
VERTEX
  8
block06
 10
0.000000
 20
0.000000
 30
0.000000
 70
   128
 71
    95
 72
   111
 73
   109
  0
VERTEX
  8
block06
 10
0.000000
 20
0.000000
 30
0.000000
 70
   128
 71
   105
 72
   110
 73
   111
  0
VERTEX
  8
block06
 10
0.000000
 20
0.000000
 30
0.000000
 70
   128
 71
   110
 72
   109
 73
   111
  0
VERTEX
  8
block06
 10
0.000000
 20
0.000000
 30
0.000000
 70
   128
 71
   151
 72
   107
 73
   147
  0
VERTEX
  8
block06
 10
0.000000
 20
0.000000
 30
0.000000
 70
   128
 71
   117
 72
   113
 73
   112
  0
VERTEX
  8
block06
 10
0.000000
 20
0.000000
 30
0.000000
 70
   128
 71
   113
 72
   114
 73
   112
  0
VERTEX
  8
block06
 10
0.000000
 20
0.000000
 30
0.000000
 70
   128
 71
   114
 72
   115
 73
   112
  0
VERTEX
  8
block06
 10
0.000000
 20
0.000000
 30
0.000000
 70
   128
 71
   115
 72
   116
 73
   112
  0
VERTEX
  8
block06
 10
0.000000
 20
0.000000
 30
0.000000
 70
   128
 71
   116
 72
    68
 73
   112
  0
VERTEX
  8
block06
 10
0.000000
 20
0.000000
 30
0.000000
 70
   128
 71
   117
 72
   112
 73
    68
  0
VERTEX
  8
block06
 10
0.000000
 20
0.000000
 30
0.000000
 70
   128
 71
   113
 72
    67
 73
   121
  0
VERTEX
  8
block06
 10
0.000000
 20
0.000000
 30
0.000000
 70
   128
 71
    99
 72
   118
 73
   119
  0
VERTEX
  8
block06
 10
0.000000
 20
0.000000
 30
0.000000
 70
   128
 71
   118
 72
   120
 73
   119
  0
VERTEX
  8
block06
 10
0.000000
 20
0.000000
 30
0.000000
 70
   128
 71
   120
 72
    88
 73
   119
  0
VERTEX
  8
block06
 10
0.000000
 20
0.000000
 30
0.000000
 70
   128
 71
    88
 72
   113
 73
   119
  0
VERTEX
  8
block06
 10
0.000000
 20
0.000000
 30
0.000000
 70
   128
 71
   113
 72
   121
 73
   119
  0
VERTEX
  8
block06
 10
0.000000
 20
0.000000
 30
0.000000
 70
   128
 71
    99
 72
   119
 73
   121
  0
VERTEX
  8
block06
 10
0.000000
 20
0.000000
 30
0.000000
 70
   128
 71
   122
 72
   101
 73
   124
  0
VERTEX
  8
block06
 10
0.000000
 20
0.000000
 30
0.000000
 70
   128
 71
   101
 72
   123
 73
   124
  0
VERTEX
  8
block06
 10
0.000000
 20
0.000000
 30
0.000000
 70
   128
 71
   123
 72
    78
 73
   124
  0
VERTEX
  8
block06
 10
0.000000
 20
0.000000
 30
0.000000
 70
   128
 71
    78
 72
    98
 73
   124
  0
VERTEX
  8
block06
 10
0.000000
 20
0.000000
 30
0.000000
 70
   128
 71
    98
 72
    65
 73
   124
  0
VERTEX
  8
block06
 10
0.000000
 20
0.000000
 30
0.000000
 70
   128
 71
   122
 72
   124
 73
    65
  0
VERTEX
  8
block06
 10
0.000000
 20
0.000000
 30
0.000000
 70
   128
 71
   125
 72
   130
 73
   126
  0
VERTEX
  8
block06
 10
0.000000
 20
0.000000
 30
0.000000
 70
   128
 71
   130
 72
    93
 73
   126
  0
VERTEX
  8
block06
 10
0.000000
 20
0.000000
 30
0.000000
 70
   128
 71
    93
 72
    74
 73
   126
  0
VERTEX
  8
block06
 10
0.000000
 20
0.000000
 30
0.000000
 70
   128
 71
    74
 72
   101
 73
   126
  0
VERTEX
  8
block06
 10
0.000000
 20
0.000000
 30
0.000000
 70
   128
 71
   101
 72
   127
 73
   126
  0
VERTEX
  8
block06
 10
0.000000
 20
0.000000
 30
0.000000
 70
   128
 71
   125
 72
   126
 73
   127
  0
VERTEX
  8
block06
 10
0.000000
 20
0.000000
 30
0.000000
 70
   128
 71
   128
 72
   102
 73
   129
  0
VERTEX
  8
block06
 10
0.000000
 20
0.000000
 30
0.000000
 70
   128
 71
   102
 72
   104
 73
   129
  0
VERTEX
  8
block06
 10
0.000000
 20
0.000000
 30
0.000000
 70
   128
 71
   104
 72
   130
 73
   129
  0
VERTEX
  8
block06
 10
0.000000
 20
0.000000
 30
0.000000
 70
   128
 71
   130
 72
   131
 73
   129
  0
VERTEX
  8
block06
 10
0.000000
 20
0.000000
 30
0.000000
 70
   128
 71
   132
 72
   133
 73
   134
  0
VERTEX
  8
block06
 10
0.000000
 20
0.000000
 30
0.000000
 70
   128
 71
   133
 72
   105
 73
   134
  0
VERTEX
  8
block06
 10
0.000000
 20
0.000000
 30
0.000000
 70
   128
 71
   105
 72
   111
 73
   134
  0
VERTEX
  8
block06
 10
0.000000
 20
0.000000
 30
0.000000
 70
   128
 71
   111
 72
   107
 73
   134
  0
VERTEX
  8
block06
 10
0.000000
 20
0.000000
 30
0.000000
 70
   128
 71
   107
 72
   151
 73
   134
  0
VERTEX
  8
block06
 10
0.000000
 20
0.000000
 30
0.000000
 70
   128
 71
   132
 72
   134
 73
   151
  0
VERTEX
  8
block06
 10
0.000000
 20
0.000000
 30
0.000000
 70
   128
 71
   138
 72
   135
 73
   137
  0
VERTEX
  8
block06
 10
0.000000
 20
0.000000
 30
0.000000
 70
   128
 71
   135
 72
    77
 73
   137
  0
VERTEX
  8
block06
 10
0.000000
 20
0.000000
 30
0.000000
 70
   128
 71
    77
 72
    75
 73
   137
  0
VERTEX
  8
block06
 10
0.000000
 20
0.000000
 30
0.000000
 70
   128
 71
    75
 72
   133
 73
   137
  0
VERTEX
  8
block06
 10
0.000000
 20
0.000000
 30
0.000000
 70
   128
 71
   133
 72
   136
 73
   137
  0
VERTEX
  8
block06
 10
0.000000
 20
0.000000
 30
0.000000
 70
   128
 71
   138
 72
   137
 73
   136
  0
VERTEX
  8
block06
 10
0.000000
 20
0.000000
 30
0.000000
 70
   128
 71
   139
 72
    84
 73
   140
  0
VERTEX
  8
block06
 10
0.000000
 20
0.000000
 30
0.000000
 70
   128
 71
    84
 72
    83
 73
   140
  0
VERTEX
  8
block06
 10
0.000000
 20
0.000000
 30
0.000000
 70
   128
 71
    83
 72
    85
 73
   140
  0
VERTEX
  8
block06
 10
0.000000
 20
0.000000
 30
0.000000
 70
   128
 71
    85
 72
   135
 73
   140
  0
VERTEX
  8
block06
 10
0.000000
 20
0.000000
 30
0.000000
 70
   128
 71
   135
 72
   100
 73
   140
  0
VERTEX
  8
block06
 10
0.000000
 20
0.000000
 30
0.000000
 70
   128
 71
   139
 72
   140
 73
   100
  0
VERTEX
  8
block06
 10
0.000000
 20
0.000000
 30
0.000000
 70
   128
 71
   156
 72
   146
 73
   142
  0
VERTEX
  8
block06
 10
0.000000
 20
0.000000
 30
0.000000
 70
   128
 71
   146
 72
   145
 73
   142
  0
VERTEX
  8
block06
 10
0.000000
 20
0.000000
 30
0.000000
 70
   128
 71
   145
 72
   141
 73
   142
  0
VERTEX
  8
block06
 10
0.000000
 20
0.000000
 30
0.000000
 70
   128
 71
   141
 72
    84
 73
   142
  0
VERTEX
  8
block06
 10
0.000000
 20
0.000000
 30
0.000000
 70
   128
 71
    84
 72
   153
 73
   142
  0
VERTEX
  8
block06
 10
0.000000
 20
0.000000
 30
0.000000
 70
   128
 71
   156
 72
   142
 73
   153
  0
VERTEX
  8
block06
 10
0.000000
 20
0.000000
 30
0.000000
 70
   128
 71
   143
 72
   148
 73
   144
  0
VERTEX
  8
block06
 10
0.000000
 20
0.000000
 30
0.000000
 70
   128
 71
   148
 72
    91
 73
   144
  0
VERTEX
  8
block06
 10
0.000000
 20
0.000000
 30
0.000000
 70
   128
 71
    91
 72
   145
 73
   144
  0
VERTEX
  8
block06
 10
0.000000
 20
0.000000
 30
0.000000
 70
   128
 71
   145
 72
   146
 73
   144
  0
VERTEX
  8
block06
 10
0.000000
 20
0.000000
 30
0.000000
 70
   128
 71
   146
 72
    97
 73
   144
  0
VERTEX
  8
block06
 10
0.000000
 20
0.000000
 30
0.000000
 70
   128
 71
   143
 72
   144
 73
    97
  0
VERTEX
  8
block06
 10
0.000000
 20
0.000000
 30
0.000000
 70
   128
 71
   147
 72
   107
 73
   149
  0
VERTEX
  8
block06
 10
0.000000
 20
0.000000
 30
0.000000
 70
   128
 71
   107
 72
    95
 73
   149
  0
VERTEX
  8
block06
 10
0.000000
 20
0.000000
 30
0.000000
 70
   128
 71
    95
 72
    92
 73
   149
  0
VERTEX
  8
block06
 10
0.000000
 20
0.000000
 30
0.000000
 70
   128
 71
    92
 72
   148
 73
   149
  0
VERTEX
  8
block06
 10
0.000000
 20
0.000000
 30
0.000000
 70
   128
 71
   148
 72
   150
 73
   149
  0
VERTEX
  8
block06
 10
0.000000
 20
0.000000
 30
0.000000
 70
   128
 71
   147
 72
   149
 73
   150
  0
VERTEX
  8
block06
 10
0.000000
 20
0.000000
 30
0.000000
 70
   128
 71
   151
 72
   147
 73
   152
  0
VERTEX
  8
block06
 10
0.000000
 20
0.000000
 30
0.000000
 70
   128
 71
   151
 72
   152
 73
    63
  0
VERTEX
  8
block06
 10
0.000000
 20
0.000000
 30
0.000000
 70
   128
 71
    57
 72
    56
 73
   100
  0
VERTEX
  8
block06
 10
0.000000
 20
0.000000
 30
0.000000
 70
   128
 71
   158
 72
   143
 73
   157
  0
VERTEX
  8
block06
 10
0.000000
 20
0.000000
 30
0.000000
 70
   128
 71
   157
 72
   143
 73
    97
  0
VERTEX
  8
block06
 10
0.000000
 20
0.000000
 30
0.000000
 70
   128
 71
    54
 72
   156
 73
    55
  0
VERTEX
  8
block06
 10
0.000000
 20
0.000000
 30
0.000000
 70
   128
 71
    55
 72
   156
 73
   153
  0
VERTEX
  8
block06
 10
0.000000
 20
0.000000
 30
0.000000
 70
   128
 71
    55
 72
   153
 73
   139
  0
VERTEX
  8
block06
 10
0.000000
 20
0.000000
 30
0.000000
 70
   128
 71
    57
 72
   100
 73
   138
  0
VERTEX
  8
block06
 10
0.000000
 20
0.000000
 30
0.000000
 70
   128
 71
    59
 72
   138
 73
   136
  0
VERTEX
  8
block06
 10
0.000000
 20
0.000000
 30
0.000000
 70
   128
 71
    59
 72
   136
 73
   132
  0
VERTEX
  8
block06
 10
0.000000
 20
0.000000
 30
0.000000
 70
   128
 71
   152
 72
   147
 73
   150
  0
VERTEX
  8
block06
 10
0.000000
 20
0.000000
 30
0.000000
 70
   128
 71
   151
 72
    63
 73
   154
  0
VERTEX
  8
block06
 10
0.000000
 20
0.000000
 30
0.000000
 70
   128
 71
   151
 72
   154
 73
   132
  0
VERTEX
  8
block06
 10
0.000000
 20
0.000000
 30
0.000000
 70
   128
 71
    59
 72
   132
 73
   154
  0
VERTEX
  8
block06
 10
0.000000
 20
0.000000
 30
0.000000
 70
   128
 71
    57
 72
   138
 73
    59
  0
VERTEX
  8
block06
 10
0.000000
 20
0.000000
 30
0.000000
 70
   128
 71
   100
 72
    56
 73
   155
  0
VERTEX
  8
block06
 10
0.000000
 20
0.000000
 30
0.000000
 70
   128
 71
   100
 72
   155
 73
   139
  0
VERTEX
  8
block06
 10
0.000000
 20
0.000000
 30
0.000000
 70
   128
 71
    55
 72
   139
 73
   155
  0
VERTEX
  8
block06
 10
0.000000
 20
0.000000
 30
0.000000
 70
   128
 71
   156
 72
    54
 73
    97
  0
VERTEX
  8
block06
 10
0.000000
 20
0.000000
 30
0.000000
 70
   128
 71
    97
 72
    54
 73
    53
  0
VERTEX
  8
block06
 10
0.000000
 20
0.000000
 30
0.000000
 70
   128
 71
   157
 72
    97
 73
    53
  0
VERTEX
  8
block06
 10
0.000000
 20
0.000000
 30
0.000000
 70
   128
 71
   143
 72
   158
 73
   150
  0
VERTEX
  8
block06
 10
0.000000
 20
0.000000
 30
0.000000
 70
   128
 71
   152
 72
   150
 73
   158
  0
VERTEX
  8
block06
 10
0.000000
 20
0.000000
 30
0.000000
 70
   128
 71
   169
 72
   170
 73
   159
  0
VERTEX
  8
block06
 10
0.000000
 20
0.000000
 30
0.000000
 70
   128
 71
   162
 72
   160
 73
   159
  0
VERTEX
  8
block06
 10
0.000000
 20
0.000000
 30
0.000000
 70
   128
 71
   169
 72
   159
 73
   171
  0
VERTEX
  8
block06
 10
0.000000
 20
0.000000
 30
0.000000
 70
   128
 71
   162
 72
   159
 73
   164
  0
VERTEX
  8
block06
 10
0.000000
 20
0.000000
 30
0.000000
 70
   128
 71
   159
 72
   170
 73
   164
  0
VERTEX
  8
block06
 10
0.000000
 20
0.000000
 30
0.000000
 70
   128
 71
   159
 72
   160
 73
   161
  0
VERTEX
  8
block06
 10
0.000000
 20
0.000000
 30
0.000000
 70
   128
 71
   159
 72
   161
 73
   172
  0
VERTEX
  8
block06
 10
0.000000
 20
0.000000
 30
0.000000
 70
   128
 71
   162
 72
   164
 73
   165
  0
VERTEX
  8
block06
 10
0.000000
 20
0.000000
 30
0.000000
 70
   128
 71
   162
 72
   165
 73
   163
  0
VERTEX
  8
block06
 10
0.000000
 20
0.000000
 30
0.000000
 70
   128
 71
   162
 72
   163
 73
   161
  0
VERTEX
  8
block06
 10
0.000000
 20
0.000000
 30
0.000000
 70
   128
 71
   162
 72
   161
 73
   160
  0
VERTEX
  8
block06
 10
0.000000
 20
0.000000
 30
0.000000
 70
   128
 71
   165
 72
   164
 73
   170
  0
VERTEX
  8
block06
 10
0.000000
 20
0.000000
 30
0.000000
 70
   128
 71
   165
 72
   170
 73
   166
  0
VERTEX
  8
block06
 10
0.000000
 20
0.000000
 30
0.000000
 70
   128
 71
   172
 72
   161
 73
   163
  0
VERTEX
  8
block06
 10
0.000000
 20
0.000000
 30
0.000000
 70
   128
 71
   172
 72
   163
 73
   165
  0
VERTEX
  8
block06
 10
0.000000
 20
0.000000
 30
0.000000
 70
   128
 71
   172
 72
   165
 73
   166
  0
VERTEX
  8
block06
 10
0.000000
 20
0.000000
 30
0.000000
 70
   128
 71
   172
 72
   166
 73
   168
  0
VERTEX
  8
block06
 10
0.000000
 20
0.000000
 30
0.000000
 70
   128
 71
   172
 72
   168
 73
   167
  0
VERTEX
  8
block06
 10
0.000000
 20
0.000000
 30
0.000000
 70
   128
 71
   171
 72
   167
 73
   169
  0
VERTEX
  8
block06
 10
0.000000
 20
0.000000
 30
0.000000
 70
   128
 71
   169
 72
   167
 73
   168
  0
VERTEX
  8
block06
 10
0.000000
 20
0.000000
 30
0.000000
 70
   128
 71
   168
 72
   166
 73
   170
  0
VERTEX
  8
block06
 10
0.000000
 20
0.000000
 30
0.000000
 70
   128
 71
   169
 72
   168
 73
   170
  0
VERTEX
  8
block06
 10
0.000000
 20
0.000000
 30
0.000000
 70
   128
 71
   167
 72
   171
 73
   172
  0
VERTEX
  8
block06
 10
0.000000
 20
0.000000
 30
0.000000
 70
   128
 71
   172
 72
   171
 73
   159
  0
VERTEX
  8
block06
 10
0.000000
 20
0.000000
 30
0.000000
 70
   128
 71
   186
 72
   178
 73
   174
  0
VERTEX
  8
block06
 10
0.000000
 20
0.000000
 30
0.000000
 70
   128
 71
   175
 72
   173
 73
   174
  0
VERTEX
  8
block06
 10
0.000000
 20
0.000000
 30
0.000000
 70
   128
 71
   186
 72
   174
 73
   185
  0
VERTEX
  8
block06
 10
0.000000
 20
0.000000
 30
0.000000
 70
   128
 71
   175
 72
   174
 73
   177
  0
VERTEX
  8
block06
 10
0.000000
 20
0.000000
 30
0.000000
 70
   128
 71
   174
 72
   178
 73
   177
  0
VERTEX
  8
block06
 10
0.000000
 20
0.000000
 30
0.000000
 70
   128
 71
   174
 72
   173
 73
   176
  0
VERTEX
  8
block06
 10
0.000000
 20
0.000000
 30
0.000000
 70
   128
 71
   174
 72
   176
 73
   182
  0
VERTEX
  8
block06
 10
0.000000
 20
0.000000
 30
0.000000
 70
   128
 71
   175
 72
   177
 73
   179
  0
VERTEX
  8
block06
 10
0.000000
 20
0.000000
 30
0.000000
 70
   128
 71
   175
 72
   179
 73
   180
  0
VERTEX
  8
block06
 10
0.000000
 20
0.000000
 30
0.000000
 70
   128
 71
   175
 72
   180
 73
   176
  0
VERTEX
  8
block06
 10
0.000000
 20
0.000000
 30
0.000000
 70
   128
 71
   175
 72
   176
 73
   173
  0
VERTEX
  8
block06
 10
0.000000
 20
0.000000
 30
0.000000
 70
   128
 71
   179
 72
   177
 73
   178
  0
VERTEX
  8
block06
 10
0.000000
 20
0.000000
 30
0.000000
 70
   128
 71
   179
 72
   178
 73
   181
  0
VERTEX
  8
block06
 10
0.000000
 20
0.000000
 30
0.000000
 70
   128
 71
   182
 72
   176
 73
   180
  0
VERTEX
  8
block06
 10
0.000000
 20
0.000000
 30
0.000000
 70
   128
 71
   182
 72
   180
 73
   179
  0
VERTEX
  8
block06
 10
0.000000
 20
0.000000
 30
0.000000
 70
   128
 71
   182
 72
   179
 73
   181
  0
VERTEX
  8
block06
 10
0.000000
 20
0.000000
 30
0.000000
 70
   128
 71
   182
 72
   181
 73
   183
  0
VERTEX
  8
block06
 10
0.000000
 20
0.000000
 30
0.000000
 70
   128
 71
   182
 72
   183
 73
   184
  0
VERTEX
  8
block06
 10
0.000000
 20
0.000000
 30
0.000000
 70
   128
 71
   185
 72
   184
 73
   186
  0
VERTEX
  8
block06
 10
0.000000
 20
0.000000
 30
0.000000
 70
   128
 71
   186
 72
   184
 73
   183
  0
VERTEX
  8
block06
 10
0.000000
 20
0.000000
 30
0.000000
 70
   128
 71
   183
 72
   181
 73
   178
  0
VERTEX
  8
block06
 10
0.000000
 20
0.000000
 30
0.000000
 70
   128
 71
   186
 72
   183
 73
   178
  0
VERTEX
  8
block06
 10
0.000000
 20
0.000000
 30
0.000000
 70
   128
 71
   184
 72
   185
 73
   182
  0
VERTEX
  8
block06
 10
0.000000
 20
0.000000
 30
0.000000
 70
   128
 71
   182
 72
   185
 73
   174
  0
VERTEX
  8
block06
 10
0.000000
 20
0.000000
 30
0.000000
 70
   128
 71
   187
 72
   188
 73
   189
  0
VERTEX
  8
block06
 10
0.000000
 20
0.000000
 30
0.000000
 70
   128
 71
   187
 72
   189
 73
   200
  0
VERTEX
  8
block06
 10
0.000000
 20
0.000000
 30
0.000000
 70
   128
 71
   190
 72
   192
 73
   194
  0
VERTEX
  8
block06
 10
0.000000
 20
0.000000
 30
0.000000
 70
   128
 71
   190
 72
   194
 73
   193
  0
VERTEX
  8
block06
 10
0.000000
 20
0.000000
 30
0.000000
 70
   128
 71
   191
 72
   198
 73
   187
  0
VERTEX
  8
block06
 10
0.000000
 20
0.000000
 30
0.000000
 70
   128
 71
   190
 72
   188
 73
   187
  0
VERTEX
  8
block06
 10
0.000000
 20
0.000000
 30
0.000000
 70
   128
 71
   191
 72
   187
 73
   195
  0
VERTEX
  8
block06
 10
0.000000
 20
0.000000
 30
0.000000
 70
   128
 71
   190
 72
   187
 73
   192
  0
VERTEX
  8
block06
 10
0.000000
 20
0.000000
 30
0.000000
 70
   128
 71
   187
 72
   198
 73
   192
  0
VERTEX
  8
block06
 10
0.000000
 20
0.000000
 30
0.000000
 70
   128
 71
   188
 72
   190
 73
   193
  0
VERTEX
  8
block06
 10
0.000000
 20
0.000000
 30
0.000000
 70
   128
 71
   188
 72
   193
 73
   189
  0
VERTEX
  8
block06
 10
0.000000
 20
0.000000
 30
0.000000
 70
   128
 71
   197
 72
   194
 73
   192
  0
VERTEX
  8
block06
 10
0.000000
 20
0.000000
 30
0.000000
 70
   128
 71
   197
 72
   192
 73
   198
  0
VERTEX
  8
block06
 10
0.000000
 20
0.000000
 30
0.000000
 70
   128
 71
   200
 72
   189
 73
   193
  0
VERTEX
  8
block06
 10
0.000000
 20
0.000000
 30
0.000000
 70
   128
 71
   200
 72
   193
 73
   194
  0
VERTEX
  8
block06
 10
0.000000
 20
0.000000
 30
0.000000
 70
   128
 71
   200
 72
   194
 73
   197
  0
VERTEX
  8
block06
 10
0.000000
 20
0.000000
 30
0.000000
 70
   128
 71
   200
 72
   197
 73
   196
  0
VERTEX
  8
block06
 10
0.000000
 20
0.000000
 30
0.000000
 70
   128
 71
   200
 72
   196
 73
   199
  0
VERTEX
  8
block06
 10
0.000000
 20
0.000000
 30
0.000000
 70
   128
 71
   195
 72
   199
 73
   191
  0
VERTEX
  8
block06
 10
0.000000
 20
0.000000
 30
0.000000
 70
   128
 71
   191
 72
   199
 73
   196
  0
VERTEX
  8
block06
 10
0.000000
 20
0.000000
 30
0.000000
 70
   128
 71
   196
 72
   197
 73
   198
  0
VERTEX
  8
block06
 10
0.000000
 20
0.000000
 30
0.000000
 70
   128
 71
   191
 72
   196
 73
   198
  0
VERTEX
  8
block06
 10
0.000000
 20
0.000000
 30
0.000000
 70
   128
 71
   199
 72
   195
 73
   200
  0
VERTEX
  8
block06
 10
0.000000
 20
0.000000
 30
0.000000
 70
   128
 71
   200
 72
   195
 73
   187
  0
VERTEX
  8
block06
 10
0.000000
 20
0.000000
 30
0.000000
 70
   128
 71
   208
 72
   204
 73
   206
  0
VERTEX
  8
block06
 10
0.000000
 20
0.000000
 30
0.000000
 70
   128
 71
   208
 72
   206
 73
   207
  0
VERTEX
  8
block06
 10
0.000000
 20
0.000000
 30
0.000000
 70
   128
 71
   201
 72
   205
 73
   204
  0
VERTEX
  8
block06
 10
0.000000
 20
0.000000
 30
0.000000
 70
   128
 71
   201
 72
   204
 73
   208
  0
VERTEX
  8
block06
 10
0.000000
 20
0.000000
 30
0.000000
 70
   128
 71
   202
 72
   203
 73
   205
  0
VERTEX
  8
block06
 10
0.000000
 20
0.000000
 30
0.000000
 70
   128
 71
   202
 72
   205
 73
   201
  0
VERTEX
  8
block06
 10
0.000000
 20
0.000000
 30
0.000000
 70
   128
 71
   207
 72
   206
 73
   203
  0
VERTEX
  8
block06
 10
0.000000
 20
0.000000
 30
0.000000
 70
   128
 71
   207
 72
   203
 73
   202
  0
VERTEX
  8
block06
 10
0.000000
 20
0.000000
 30
0.000000
 70
   128
 71
   204
 72
   205
 73
   203
  0
VERTEX
  8
block06
 10
0.000000
 20
0.000000
 30
0.000000
 70
   128
 71
   204
 72
   203
 73
   206
  0
VERTEX
  8
block06
 10
0.000000
 20
0.000000
 30
0.000000
 70
   128
 71
   207
 72
   202
 73
   201
  0
VERTEX
  8
block06
 10
0.000000
 20
0.000000
 30
0.000000
 70
   128
 71
   207
 72
   201
 73
   208
  0
VERTEX
  8
block06
 10
0.000000
 20
0.000000
 30
0.000000
 70
   128
 71
   253
 72
   209
 73
   250
  0
VERTEX
  8
block06
 10
0.000000
 20
0.000000
 30
0.000000
 70
   128
 71
   210
 72
   244
 73
   242
  0
VERTEX
  8
block06
 10
0.000000
 20
0.000000
 30
0.000000
 70
   128
 71
   210
 72
   242
 73
   238
  0
VERTEX
  8
block06
 10
0.000000
 20
0.000000
 30
0.000000
 70
   128
 71
   211
 72
   238
 73
   212
  0
VERTEX
  8
block06
 10
0.000000
 20
0.000000
 30
0.000000
 70
   128
 71
   211
 72
   212
 73
   219
  0
VERTEX
  8
block06
 10
0.000000
 20
0.000000
 30
0.000000
 70
   128
 71
   248
 72
   218
 73
   255
  0
VERTEX
  8
block06
 10
0.000000
 20
0.000000
 30
0.000000
 70
   128
 71
   255
 72
   218
 73
   237
  0
VERTEX
  8
block06
 10
0.000000
 20
0.000000
 30
0.000000
 70
   128
 71
   255
 72
   237
 73
   240
  0
VERTEX
  8
block06
 10
0.000000
 20
0.000000
 30
0.000000
 70
   128
 71
   250
 72
   209
 73
   213
  0
VERTEX
  8
block06
 10
0.000000
 20
0.000000
 30
0.000000
 70
   128
 71
   214
 72
   213
 73
   215
  0
VERTEX
  8
block06
 10
0.000000
 20
0.000000
 30
0.000000
 70
   128
 71
   214
 72
   215
 73
   216
  0
VERTEX
  8
block06
 10
0.000000
 20
0.000000
 30
0.000000
 70
   128
 71
   221
 72
   220
 73
   216
  0
VERTEX
  8
block06
 10
0.000000
 20
0.000000
 30
0.000000
 70
   128
 71
   214
 72
   216
 73
   220
  0
VERTEX
  8
block06
 10
0.000000
 20
0.000000
 30
0.000000
 70
   128
 71
   250
 72
   213
 73
   214
  0
VERTEX
  8
block06
 10
0.000000
 20
0.000000
 30
0.000000
 70
   128
 71
   209
 72
   253
 73
   217
  0
VERTEX
  8
block06
 10
0.000000
 20
0.000000
 30
0.000000
 70
   128
 71
   209
 72
   217
 73
   240
  0
VERTEX
  8
block06
 10
0.000000
 20
0.000000
 30
0.000000
 70
   128
 71
   255
 72
   240
 73
   217
  0
VERTEX
  8
block06
 10
0.000000
 20
0.000000
 30
0.000000
 70
   128
 71
   218
 72
   248
 73
   219
  0
VERTEX
  8
block06
 10
0.000000
 20
0.000000
 30
0.000000
 70
   128
 71
   219
 72
   248
 73
   247
  0
VERTEX
  8
block06
 10
0.000000
 20
0.000000
 30
0.000000
 70
   128
 71
   211
 72
   219
 73
   247
  0
VERTEX
  8
block06
 10
0.000000
 20
0.000000
 30
0.000000
 70
   128
 71
   210
 72
   238
 73
   211
  0
VERTEX
  8
block06
 10
0.000000
 20
0.000000
 30
0.000000
 70
   128
 71
   220
 72
   221
 73
   251
  0
VERTEX
  8
block06
 10
0.000000
 20
0.000000
 30
0.000000
 70
   128
 71
   221
 72
   242
 73
   251
  0
VERTEX
  8
block06
 10
0.000000
 20
0.000000
 30
0.000000
 70
   128
 71
   242
 72
   244
 73
   251
  0
VERTEX
  8
block06
 10
0.000000
 20
0.000000
 30
0.000000
 70
   128
 71
   254
 72
   256
 73
   241
  0
VERTEX
  8
block06
 10
0.000000
 20
0.000000
 30
0.000000
 70
   128
 71
   245
 72
   239
 73
   222
  0
VERTEX
  8
block06
 10
0.000000
 20
0.000000
 30
0.000000
 70
   128
 71
   222
 72
   239
 73
   243
  0
VERTEX
  8
block06
 10
0.000000
 20
0.000000
 30
0.000000
 70
   128
 71
   223
 72
   235
 73
   233
  0
VERTEX
  8
block06
 10
0.000000
 20
0.000000
 30
0.000000
 70
   128
 71
   233
 72
   235
 73
   232
  0
VERTEX
  8
block06
 10
0.000000
 20
0.000000
 30
0.000000
 70
   128
 71
   252
 72
   224
 73
   226
  0
VERTEX
  8
block06
 10
0.000000
 20
0.000000
 30
0.000000
 70
   128
 71
   226
 72
   224
 73
   225
  0
VERTEX
  8
block06
 10
0.000000
 20
0.000000
 30
0.000000
 70
   128
 71
   226
 72
   225
 73
   227
  0
VERTEX
  8
block06
 10
0.000000
 20
0.000000
 30
0.000000
 70
   128
 71
   254
 72
   241
 73
   236
  0
VERTEX
  8
block06
 10
0.000000
 20
0.000000
 30
0.000000
 70
   128
 71
   254
 72
   236
 73
   230
  0
VERTEX
  8
block06
 10
0.000000
 20
0.000000
 30
0.000000
 70
   128
 71
   231
 72
   229
 73
   246
  0
VERTEX
  8
block06
 10
0.000000
 20
0.000000
 30
0.000000
 70
   128
 71
   246
 72
   229
 73
   228
  0
VERTEX
  8
block06
 10
0.000000
 20
0.000000
 30
0.000000
 70
   128
 71
   229
 72
   231
 73
   230
  0
VERTEX
  8
block06
 10
0.000000
 20
0.000000
 30
0.000000
 70
   128
 71
   254
 72
   230
 73
   231
  0
VERTEX
  8
block06
 10
0.000000
 20
0.000000
 30
0.000000
 70
   128
 71
   241
 72
   256
 73
   249
  0
VERTEX
  8
block06
 10
0.000000
 20
0.000000
 30
0.000000
 70
   128
 71
   241
 72
   249
 73
   227
  0
VERTEX
  8
block06
 10
0.000000
 20
0.000000
 30
0.000000
 70
   128
 71
   226
 72
   227
 73
   249
  0
VERTEX
  8
block06
 10
0.000000
 20
0.000000
 30
0.000000
 70
   128
 71
   224
 72
   252
 73
   232
  0
VERTEX
  8
block06
 10
0.000000
 20
0.000000
 30
0.000000
 70
   128
 71
   233
 72
   232
 73
   252
  0
VERTEX
  8
block06
 10
0.000000
 20
0.000000
 30
0.000000
 70
   128
 71
   235
 72
   223
 73
   243
  0
VERTEX
  8
block06
 10
0.000000
 20
0.000000
 30
0.000000
 70
   128
 71
   222
 72
   243
 73
   223
  0
VERTEX
  8
block06
 10
0.000000
 20
0.000000
 30
0.000000
 70
   128
 71
   246
 72
   228
 73
   234
  0
VERTEX
  8
block06
 10
0.000000
 20
0.000000
 30
0.000000
 70
   128
 71
   228
 72
   239
 73
   234
  0
VERTEX
  8
block06
 10
0.000000
 20
0.000000
 30
0.000000
 70
   128
 71
   239
 72
   245
 73
   234
  0
VERTEX
  8
block06
 10
0.000000
 20
0.000000
 30
0.000000
 70
   128
 71
   243
 72
   221
 73
   235
  0
VERTEX
  8
block06
 10
0.000000
 20
0.000000
 30
0.000000
 70
   128
 71
   235
 72
   221
 73
   216
  0
VERTEX
  8
block06
 10
0.000000
 20
0.000000
 30
0.000000
 70
   128
 71
   232
 72
   215
 73
   224
  0
VERTEX
  8
block06
 10
0.000000
 20
0.000000
 30
0.000000
 70
   128
 71
   224
 72
   215
 73
   213
  0
VERTEX
  8
block06
 10
0.000000
 20
0.000000
 30
0.000000
 70
   128
 71
   225
 72
   209
 73
   227
  0
VERTEX
  8
block06
 10
0.000000
 20
0.000000
 30
0.000000
 70
   128
 71
   227
 72
   209
 73
   240
  0
VERTEX
  8
block06
 10
0.000000
 20
0.000000
 30
0.000000
 70
   128
 71
   241
 72
   237
 73
   236
  0
VERTEX
  8
block06
 10
0.000000
 20
0.000000
 30
0.000000
 70
   128
 71
   236
 72
   237
 73
   218
  0
VERTEX
  8
block06
 10
0.000000
 20
0.000000
 30
0.000000
 70
   128
 71
   230
 72
   219
 73
   229
  0
VERTEX
  8
block06
 10
0.000000
 20
0.000000
 30
0.000000
 70
   128
 71
   229
 72
   219
 73
   212
  0
VERTEX
  8
block06
 10
0.000000
 20
0.000000
 30
0.000000
 70
   128
 71
   228
 72
   238
 73
   239
  0
VERTEX
  8
block06
 10
0.000000
 20
0.000000
 30
0.000000
 70
   128
 71
   239
 72
   238
 73
   242
  0
VERTEX
  8
block06
 10
0.000000
 20
0.000000
 30
0.000000
 70
   128
 71
   238
 72
   228
 73
   212
  0
VERTEX
  8
block06
 10
0.000000
 20
0.000000
 30
0.000000
 70
   128
 71
   229
 72
   212
 73
   228
  0
VERTEX
  8
block06
 10
0.000000
 20
0.000000
 30
0.000000
 70
   128
 71
   219
 72
   230
 73
   218
  0
VERTEX
  8
block06
 10
0.000000
 20
0.000000
 30
0.000000
 70
   128
 71
   236
 72
   218
 73
   230
  0
VERTEX
  8
block06
 10
0.000000
 20
0.000000
 30
0.000000
 70
   128
 71
   237
 72
   241
 73
   240
  0
VERTEX
  8
block06
 10
0.000000
 20
0.000000
 30
0.000000
 70
   128
 71
   227
 72
   240
 73
   241
  0
VERTEX
  8
block06
 10
0.000000
 20
0.000000
 30
0.000000
 70
   128
 71
   209
 72
   225
 73
   213
  0
VERTEX
  8
block06
 10
0.000000
 20
0.000000
 30
0.000000
 70
   128
 71
   224
 72
   213
 73
   225
  0
VERTEX
  8
block06
 10
0.000000
 20
0.000000
 30
0.000000
 70
   128
 71
   215
 72
   232
 73
   216
  0
VERTEX
  8
block06
 10
0.000000
 20
0.000000
 30
0.000000
 70
   128
 71
   235
 72
   216
 73
   232
  0
VERTEX
  8
block06
 10
0.000000
 20
0.000000
 30
0.000000
 70
   128
 71
   221
 72
   243
 73
   242
  0
VERTEX
  8
block06
 10
0.000000
 20
0.000000
 30
0.000000
 70
   128
 71
   239
 72
   242
 73
   243
  0
VERTEX
  8
block06
 10
0.000000
 20
0.000000
 30
0.000000
 70
   128
 71
   222
 72
   244
 73
   245
  0
VERTEX
  8
block06
 10
0.000000
 20
0.000000
 30
0.000000
 70
   128
 71
   245
 72
   244
 73
   210
  0
VERTEX
  8
block06
 10
0.000000
 20
0.000000
 30
0.000000
 70
   128
 71
   234
 72
   211
 73
   246
  0
VERTEX
  8
block06
 10
0.000000
 20
0.000000
 30
0.000000
 70
   128
 71
   246
 72
   211
 73
   247
  0
VERTEX
  8
block06
 10
0.000000
 20
0.000000
 30
0.000000
 70
   128
 71
   231
 72
   248
 73
   254
  0
VERTEX
  8
block06
 10
0.000000
 20
0.000000
 30
0.000000
 70
   128
 71
   254
 72
   248
 73
   255
  0
VERTEX
  8
block06
 10
0.000000
 20
0.000000
 30
0.000000
 70
   128
 71
   256
 72
   217
 73
   249
  0
VERTEX
  8
block06
 10
0.000000
 20
0.000000
 30
0.000000
 70
   128
 71
   249
 72
   217
 73
   253
  0
VERTEX
  8
block06
 10
0.000000
 20
0.000000
 30
0.000000
 70
   128
 71
   226
 72
   250
 73
   252
  0
VERTEX
  8
block06
 10
0.000000
 20
0.000000
 30
0.000000
 70
   128
 71
   252
 72
   250
 73
   214
  0
VERTEX
  8
block06
 10
0.000000
 20
0.000000
 30
0.000000
 70
   128
 71
   233
 72
   220
 73
   223
  0
VERTEX
  8
block06
 10
0.000000
 20
0.000000
 30
0.000000
 70
   128
 71
   223
 72
   220
 73
   251
  0
VERTEX
  8
block06
 10
0.000000
 20
0.000000
 30
0.000000
 70
   128
 71
   244
 72
   222
 73
   251
  0
VERTEX
  8
block06
 10
0.000000
 20
0.000000
 30
0.000000
 70
   128
 71
   223
 72
   251
 73
   222
  0
VERTEX
  8
block06
 10
0.000000
 20
0.000000
 30
0.000000
 70
   128
 71
   220
 72
   233
 73
   214
  0
VERTEX
  8
block06
 10
0.000000
 20
0.000000
 30
0.000000
 70
   128
 71
   252
 72
   214
 73
   233
  0
VERTEX
  8
block06
 10
0.000000
 20
0.000000
 30
0.000000
 70
   128
 71
   250
 72
   226
 73
   253
  0
VERTEX
  8
block06
 10
0.000000
 20
0.000000
 30
0.000000
 70
   128
 71
   249
 72
   253
 73
   226
  0
VERTEX
  8
block06
 10
0.000000
 20
0.000000
 30
0.000000
 70
   128
 71
   217
 72
   256
 73
   255
  0
VERTEX
  8
block06
 10
0.000000
 20
0.000000
 30
0.000000
 70
   128
 71
   254
 72
   255
 73
   256
  0
VERTEX
  8
block06
 10
0.000000
 20
0.000000
 30
0.000000
 70
   128
 71
   248
 72
   231
 73
   247
  0
VERTEX
  8
block06
 10
0.000000
 20
0.000000
 30
0.000000
 70
   128
 71
   246
 72
   247
 73
   231
  0
VERTEX
  8
block06
 10
0.000000
 20
0.000000
 30
0.000000
 70
   128
 71
   211
 72
   234
 73
   210
  0
VERTEX
  8
block06
 10
0.000000
 20
0.000000
 30
0.000000
 70
   128
 71
   245
 72
   210
 73
   234
  0
VERTEX
  8
block06
 10
0.000000
 20
0.000000
 30
0.000000
 70
   128
 71
   265
 72
   257
 73
   353
  0
VERTEX
  8
block06
 10
0.000000
 20
0.000000
 30
0.000000
 70
   128
 71
   258
 72
   363
 73
   259
  0
VERTEX
  8
block06
 10
0.000000
 20
0.000000
 30
0.000000
 70
   128
 71
   258
 72
   259
 73
   267
  0
VERTEX
  8
block06
 10
0.000000
 20
0.000000
 30
0.000000
 70
   128
 71
   258
 72
   267
 73
   268
  0
VERTEX
  8
block06
 10
0.000000
 20
0.000000
 30
0.000000
 70
   128
 71
   353
 72
   257
 73
   269
  0
VERTEX
  8
block06
 10
0.000000
 20
0.000000
 30
0.000000
 70
   128
 71
   264
 72
   277
 73
   260
  0
VERTEX
  8
block06
 10
0.000000
 20
0.000000
 30
0.000000
 70
   128
 71
   260
 72
   277
 73
   261
  0
VERTEX
  8
block06
 10
0.000000
 20
0.000000
 30
0.000000
 70
   128
 71
   360
 72
   275
 73
   351
  0
VERTEX
  8
block06
 10
0.000000
 20
0.000000
 30
0.000000
 70
   128
 71
   351
 72
   275
 73
   262
  0
VERTEX
  8
block06
 10
0.000000
 20
0.000000
 30
0.000000
 70
   128
 71
   351
 72
   262
 73
   273
  0
VERTEX
  8
block06
 10
0.000000
 20
0.000000
 30
0.000000
 70
   128
 71
   350
 72
   263
 73
   361
  0
VERTEX
  8
block06
 10
0.000000
 20
0.000000
 30
0.000000
 70
   128
 71
   361
 72
   263
 73
   266
  0
VERTEX
  8
block06
 10
0.000000
 20
0.000000
 30
0.000000
 70
   128
 71
   263
 72
   350
 73
   273
  0
VERTEX
  8
block06
 10
0.000000
 20
0.000000
 30
0.000000
 70
   128
 71
   351
 72
   273
 73
   350
  0
VERTEX
  8
block06
 10
0.000000
 20
0.000000
 30
0.000000
 70
   128
 71
   275
 72
   360
 73
   261
  0
VERTEX
  8
block06
 10
0.000000
 20
0.000000
 30
0.000000
 70
   128
 71
   260
 72
   261
 73
   360
  0
VERTEX
  8
block06
 10
0.000000
 20
0.000000
 30
0.000000
 70
   128
 71
   277
 72
   264
 73
   269
  0
VERTEX
  8
block06
 10
0.000000
 20
0.000000
 30
0.000000
 70
   128
 71
   353
 72
   269
 73
   264
  0
VERTEX
  8
block06
 10
0.000000
 20
0.000000
 30
0.000000
 70
   128
 71
   257
 72
   265
 73
   355
  0
VERTEX
  8
block06
 10
0.000000
 20
0.000000
 30
0.000000
 70
   128
 71
   257
 72
   355
 73
   268
  0
VERTEX
  8
block06
 10
0.000000
 20
0.000000
 30
0.000000
 70
   128
 71
   258
 72
   268
 73
   355
  0
VERTEX
  8
block06
 10
0.000000
 20
0.000000
 30
0.000000
 70
   128
 71
   361
 72
   266
 73
   364
  0
VERTEX
  8
block06
 10
0.000000
 20
0.000000
 30
0.000000
 70
   128
 71
   266
 72
   259
 73
   364
  0
VERTEX
  8
block06
 10
0.000000
 20
0.000000
 30
0.000000
 70
   128
 71
   259
 72
   363
 73
   364
  0
VERTEX
  8
block06
 10
0.000000
 20
0.000000
 30
0.000000
 70
   128
 71
   336
 72
   271
 73
   259
  0
VERTEX
  8
block06
 10
0.000000
 20
0.000000
 30
0.000000
 70
   128
 71
   267
 72
   335
 73
   268
  0
VERTEX
  8
block06
 10
0.000000
 20
0.000000
 30
0.000000
 70
   128
 71
   268
 72
   335
 73
   278
  0
VERTEX
  8
block06
 10
0.000000
 20
0.000000
 30
0.000000
 70
   128
 71
   257
 72
   331
 73
   269
  0
VERTEX
  8
block06
 10
0.000000
 20
0.000000
 30
0.000000
 70
   128
 71
   269
 72
   331
 73
   276
  0
VERTEX
  8
block06
 10
0.000000
 20
0.000000
 30
0.000000
 70
   128
 71
   277
 72
   325
 73
   261
  0
VERTEX
  8
block06
 10
0.000000
 20
0.000000
 30
0.000000
 70
   128
 71
   261
 72
   325
 73
   274
  0
VERTEX
  8
block06
 10
0.000000
 20
0.000000
 30
0.000000
 70
   128
 71
   262
 72
   322
 73
   273
  0
VERTEX
  8
block06
 10
0.000000
 20
0.000000
 30
0.000000
 70
   128
 71
   273
 72
   322
 73
   324
  0
VERTEX
  8
block06
 10
0.000000
 20
0.000000
 30
0.000000
 70
   128
 71
   263
 72
   270
 73
   266
  0
VERTEX
  8
block06
 10
0.000000
 20
0.000000
 30
0.000000
 70
   128
 71
   266
 72
   270
 73
   336
  0
VERTEX
  8
block06
 10
0.000000
 20
0.000000
 30
0.000000
 70
   128
 71
   259
 72
   271
 73
   272
  0
VERTEX
  8
block06
 10
0.000000
 20
0.000000
 30
0.000000
 70
   128
 71
   266
 72
   336
 73
   259
  0
VERTEX
  8
block06
 10
0.000000
 20
0.000000
 30
0.000000
 70
   128
 71
   270
 72
   263
 73
   324
  0
VERTEX
  8
block06
 10
0.000000
 20
0.000000
 30
0.000000
 70
   128
 71
   273
 72
   324
 73
   263
  0
VERTEX
  8
block06
 10
0.000000
 20
0.000000
 30
0.000000
 70
   128
 71
   322
 72
   262
 73
   274
  0
VERTEX
  8
block06
 10
0.000000
 20
0.000000
 30
0.000000
 70
   128
 71
   274
 72
   262
 73
   275
  0
VERTEX
  8
block06
 10
0.000000
 20
0.000000
 30
0.000000
 70
   128
 71
   261
 72
   274
 73
   275
  0
VERTEX
  8
block06
 10
0.000000
 20
0.000000
 30
0.000000
 70
   128
 71
   325
 72
   277
 73
   276
  0
VERTEX
  8
block06
 10
0.000000
 20
0.000000
 30
0.000000
 70
   128
 71
   269
 72
   276
 73
   277
  0
VERTEX
  8
block06
 10
0.000000
 20
0.000000
 30
0.000000
 70
   128
 71
   331
 72
   257
 73
   278
  0
VERTEX
  8
block06
 10
0.000000
 20
0.000000
 30
0.000000
 70
   128
 71
   268
 72
   278
 73
   257
  0
VERTEX
  8
block06
 10
0.000000
 20
0.000000
 30
0.000000
 70
   128
 71
   335
 72
   267
 73
   272
  0
VERTEX
  8
block06
 10
0.000000
 20
0.000000
 30
0.000000
 70
   128
 71
   259
 72
   272
 73
   267
  0
VERTEX
  8
block06
 10
0.000000
 20
0.000000
 30
0.000000
 70
   128
 71
   308
 72
   272
 73
   313
  0
VERTEX
  8
block06
 10
0.000000
 20
0.000000
 30
0.000000
 70
   128
 71
   320
 72
   279
 73
   280
  0
VERTEX
  8
block06
 10
0.000000
 20
0.000000
 30
0.000000
 70
   128
 71
   281
 72
   316
 73
   282
  0
VERTEX
  8
block06
 10
0.000000
 20
0.000000
 30
0.000000
 70
   128
 71
   316
 72
   320
 73
   282
  0
VERTEX
  8
block06
 10
0.000000
 20
0.000000
 30
0.000000
 70
   128
 71
   320
 72
   280
 73
   282
  0
VERTEX
  8
block06
 10
0.000000
 20
0.000000
 30
0.000000
 70
   128
 71
   280
 72
   285
 73
   282
  0
VERTEX
  8
block06
 10
0.000000
 20
0.000000
 30
0.000000
 70
   128
 71
   280
 72
   279
 73
   342
  0
VERTEX
  8
block06
 10
0.000000
 20
0.000000
 30
0.000000
 70
   128
 71
   281
 72
   282
 73
   283
  0
VERTEX
  8
block06
 10
0.000000
 20
0.000000
 30
0.000000
 70
   128
 71
   282
 72
   285
 73
   283
  0
VERTEX
  8
block06
 10
0.000000
 20
0.000000
 30
0.000000
 70
   128
 71
   285
 72
   329
 73
   283
  0
VERTEX
  8
block06
 10
0.000000
 20
0.000000
 30
0.000000
 70
   128
 71
   329
 72
   333
 73
   283
  0
VERTEX
  8
block06
 10
0.000000
 20
0.000000
 30
0.000000
 70
   128
 71
   288
 72
   284
 73
   293
  0
VERTEX
  8
block06
 10
0.000000
 20
0.000000
 30
0.000000
 70
   128
 71
   285
 72
   280
 73
   286
  0
VERTEX
  8
block06
 10
0.000000
 20
0.000000
 30
0.000000
 70
   128
 71
   280
 72
   342
 73
   286
  0
VERTEX
  8
block06
 10
0.000000
 20
0.000000
 30
0.000000
 70
   128
 71
   342
 72
   284
 73
   286
  0
VERTEX
  8
block06
 10
0.000000
 20
0.000000
 30
0.000000
 70
   128
 71
   329
 72
   285
 73
   287
  0
VERTEX
  8
block06
 10
0.000000
 20
0.000000
 30
0.000000
 70
   128
 71
   285
 72
   286
 73
   287
  0
VERTEX
  8
block06
 10
0.000000
 20
0.000000
 30
0.000000
 70
   128
 71
   286
 72
   284
 73
   287
  0
VERTEX
  8
block06
 10
0.000000
 20
0.000000
 30
0.000000
 70
   128
 71
   284
 72
   288
 73
   287
  0
VERTEX
  8
block06
 10
0.000000
 20
0.000000
 30
0.000000
 70
   128
 71
   329
 72
   287
 73
   289
  0
VERTEX
  8
block06
 10
0.000000
 20
0.000000
 30
0.000000
 70
   128
 71
   287
 72
   288
 73
   289
  0
VERTEX
  8
block06
 10
0.000000
 20
0.000000
 30
0.000000
 70
   128
 71
   288
 72
   290
 73
   289
  0
VERTEX
  8
block06
 10
0.000000
 20
0.000000
 30
0.000000
 70
   128
 71
   290
 72
   288
 73
   291
  0
VERTEX
  8
block06
 10
0.000000
 20
0.000000
 30
0.000000
 70
   128
 71
   288
 72
   293
 73
   291
  0
VERTEX
  8
block06
 10
0.000000
 20
0.000000
 30
0.000000
 70
   128
 71
   293
 72
   284
 73
   292
  0
VERTEX
  8
block06
 10
0.000000
 20
0.000000
 30
0.000000
 70
   128
 71
   293
 72
   292
 73
   311
  0
VERTEX
  8
block06
 10
0.000000
 20
0.000000
 30
0.000000
 70
   128
 71
   290
 72
   326
 73
   330
  0
VERTEX
  8
block06
 10
0.000000
 20
0.000000
 30
0.000000
 70
   128
 71
   291
 72
   293
 73
   310
  0
VERTEX
  8
block06
 10
0.000000
 20
0.000000
 30
0.000000
 70
   128
 71
   293
 72
   311
 73
   310
  0
VERTEX
  8
block06
 10
0.000000
 20
0.000000
 30
0.000000
 70
   128
 71
   294
 72
   299
 73
   326
  0
VERTEX
  8
block06
 10
0.000000
 20
0.000000
 30
0.000000
 70
   128
 71
   294
 72
   326
 73
   295
  0
VERTEX
  8
block06
 10
0.000000
 20
0.000000
 30
0.000000
 70
   128
 71
   326
 72
   290
 73
   295
  0
VERTEX
  8
block06
 10
0.000000
 20
0.000000
 30
0.000000
 70
   128
 71
   290
 72
   291
 73
   295
  0
VERTEX
  8
block06
 10
0.000000
 20
0.000000
 30
0.000000
 70
   128
 71
   291
 72
   310
 73
   295
  0
VERTEX
  8
block06
 10
0.000000
 20
0.000000
 30
0.000000
 70
   128
 71
   310
 72
   296
 73
   295
  0
VERTEX
  8
block06
 10
0.000000
 20
0.000000
 30
0.000000
 70
   128
 71
   300
 72
   298
 73
   304
  0
VERTEX
  8
block06
 10
0.000000
 20
0.000000
 30
0.000000
 70
   128
 71
   294
 72
   295
 73
   297
  0
VERTEX
  8
block06
 10
0.000000
 20
0.000000
 30
0.000000
 70
   128
 71
   295
 72
   296
 73
   297
  0
VERTEX
  8
block06
 10
0.000000
 20
0.000000
 30
0.000000
 70
   128
 71
   296
 72
   298
 73
   297
  0
VERTEX
  8
block06
 10
0.000000
 20
0.000000
 30
0.000000
 70
   128
 71
   298
 72
   300
 73
   297
  0
VERTEX
  8
block06
 10
0.000000
 20
0.000000
 30
0.000000
 70
   128
 71
   299
 72
   294
 73
   302
  0
VERTEX
  8
block06
 10
0.000000
 20
0.000000
 30
0.000000
 70
   128
 71
   294
 72
   297
 73
   302
  0
VERTEX
  8
block06
 10
0.000000
 20
0.000000
 30
0.000000
 70
   128
 71
   297
 72
   300
 73
   302
  0
VERTEX
  8
block06
 10
0.000000
 20
0.000000
 30
0.000000
 70
   128
 71
   300
 72
   301
 73
   302
  0
VERTEX
  8
block06
 10
0.000000
 20
0.000000
 30
0.000000
 70
   128
 71
   301
 72
   303
 73
   302
  0
VERTEX
  8
block06
 10
0.000000
 20
0.000000
 30
0.000000
 70
   128
 71
   301
 72
   300
 73
   305
  0
VERTEX
  8
block06
 10
0.000000
 20
0.000000
 30
0.000000
 70
   128
 71
   300
 72
   304
 73
   305
  0
VERTEX
  8
block06
 10
0.000000
 20
0.000000
 30
0.000000
 70
   128
 71
   301
 72
   305
 73
   315
  0
VERTEX
  8
block06
 10
0.000000
 20
0.000000
 30
0.000000
 70
   128
 71
   304
 72
   298
 73
   345
  0
VERTEX
  8
block06
 10
0.000000
 20
0.000000
 30
0.000000
 70
   128
 71
   305
 72
   304
 73
   346
  0
VERTEX
  8
block06
 10
0.000000
 20
0.000000
 30
0.000000
 70
   128
 71
   270
 72
   303
 73
   314
  0
VERTEX
  8
block06
 10
0.000000
 20
0.000000
 30
0.000000
 70
   128
 71
   303
 72
   301
 73
   314
  0
VERTEX
  8
block06
 10
0.000000
 20
0.000000
 30
0.000000
 70
   128
 71
   301
 72
   315
 73
   314
  0
VERTEX
  8
block06
 10
0.000000
 20
0.000000
 30
0.000000
 70
   128
 71
   315
 72
   305
 73
   306
  0
VERTEX
  8
block06
 10
0.000000
 20
0.000000
 30
0.000000
 70
   128
 71
   305
 72
   346
 73
   306
  0
VERTEX
  8
block06
 10
0.000000
 20
0.000000
 30
0.000000
 70
   128
 71
   306
 72
   346
 73
   318
  0
VERTEX
  8
block06
 10
0.000000
 20
0.000000
 30
0.000000
 70
   128
 71
   339
 72
   338
 73
   356
  0
VERTEX
  8
block06
 10
0.000000
 20
0.000000
 30
0.000000
 70
   128
 71
   316
 72
   281
 73
   307
  0
VERTEX
  8
block06
 10
0.000000
 20
0.000000
 30
0.000000
 70
   128
 71
   281
 72
   332
 73
   307
  0
VERTEX
  8
block06
 10
0.000000
 20
0.000000
 30
0.000000
 70
   128
 71
   332
 72
   308
 73
   307
  0
VERTEX
  8
block06
 10
0.000000
 20
0.000000
 30
0.000000
 70
   128
 71
   308
 72
   313
 73
   307
  0
VERTEX
  8
block06
 10
0.000000
 20
0.000000
 30
0.000000
 70
   128
 71
   308
 72
   332
 73
   335
  0
VERTEX
  8
block06
 10
0.000000
 20
0.000000
 30
0.000000
 70
   128
 71
   354
 72
   342
 73
   357
  0
VERTEX
  8
block06
 10
0.000000
 20
0.000000
 30
0.000000
 70
   128
 71
   342
 72
   279
 73
   357
  0
VERTEX
  8
block06
 10
0.000000
 20
0.000000
 30
0.000000
 70
   128
 71
   278
 72
   333
 73
   331
  0
VERTEX
  8
block06
 10
0.000000
 20
0.000000
 30
0.000000
 70
   128
 71
   311
 72
   292
 73
   352
  0
VERTEX
  8
block06
 10
0.000000
 20
0.000000
 30
0.000000
 70
   128
 71
   276
 72
   330
 73
   325
  0
VERTEX
  8
block06
 10
0.000000
 20
0.000000
 30
0.000000
 70
   128
 71
   296
 72
   310
 73
   309
  0
VERTEX
  8
block06
 10
0.000000
 20
0.000000
 30
0.000000
 70
   128
 71
   310
 72
   311
 73
   309
  0
VERTEX
  8
block06
 10
0.000000
 20
0.000000
 30
0.000000
 70
   128
 71
   311
 72
   312
 73
   309
  0
VERTEX
  8
block06
 10
0.000000
 20
0.000000
 30
0.000000
 70
   128
 71
   309
 72
   312
 73
   349
  0
VERTEX
  8
block06
 10
0.000000
 20
0.000000
 30
0.000000
 70
   128
 71
   274
 72
   299
 73
   322
  0
VERTEX
  8
block06
 10
0.000000
 20
0.000000
 30
0.000000
 70
   128
 71
   362
 72
   345
 73
   343
  0
VERTEX
  8
block06
 10
0.000000
 20
0.000000
 30
0.000000
 70
   128
 71
   303
 72
   270
 73
   324
  0
VERTEX
  8
block06
 10
0.000000
 20
0.000000
 30
0.000000
 70
   128
 71
   313
 72
   272
 73
   271
  0
VERTEX
  8
block06
 10
0.000000
 20
0.000000
 30
0.000000
 70
   128
 71
   314
 72
   315
 73
   313
  0
VERTEX
  8
block06
 10
0.000000
 20
0.000000
 30
0.000000
 70
   128
 71
   315
 72
   317
 73
   313
  0
VERTEX
  8
block06
 10
0.000000
 20
0.000000
 30
0.000000
 70
   128
 71
   316
 72
   307
 73
   317
  0
VERTEX
  8
block06
 10
0.000000
 20
0.000000
 30
0.000000
 70
   128
 71
   307
 72
   313
 73
   317
  0
VERTEX
  8
block06
 10
0.000000
 20
0.000000
 30
0.000000
 70
   128
 71
   317
 72
   315
 73
   319
  0
VERTEX
  8
block06
 10
0.000000
 20
0.000000
 30
0.000000
 70
   128
 71
   315
 72
   306
 73
   319
  0
VERTEX
  8
block06
 10
0.000000
 20
0.000000
 30
0.000000
 70
   128
 71
   306
 72
   318
 73
   319
  0
VERTEX
  8
block06
 10
0.000000
 20
0.000000
 30
0.000000
 70
   128
 71
   316
 72
   317
 73
   319
  0
VERTEX
  8
block06
 10
0.000000
 20
0.000000
 30
0.000000
 70
   128
 71
   356
 72
   338
 73
   337
  0
VERTEX
  8
block06
 10
0.000000
 20
0.000000
 30
0.000000
 70
   128
 71
   338
 72
   318
 73
   337
  0
VERTEX
  8
block06
 10
0.000000
 20
0.000000
 30
0.000000
 70
   128
 71
   318
 72
   346
 73
   337
  0
VERTEX
  8
block06
 10
0.000000
 20
0.000000
 30
0.000000
 70
   128
 71
   320
 72
   316
 73
   321
  0
VERTEX
  8
block06
 10
0.000000
 20
0.000000
 30
0.000000
 70
   128
 71
   316
 72
   319
 73
   321
  0
VERTEX
  8
block06
 10
0.000000
 20
0.000000
 30
0.000000
 70
   128
 71
   319
 72
   318
 73
   321
  0
VERTEX
  8
block06
 10
0.000000
 20
0.000000
 30
0.000000
 70
   128
 71
   318
 72
   338
 73
   321
  0
VERTEX
  8
block06
 10
0.000000
 20
0.000000
 30
0.000000
 70
   128
 71
   322
 72
   299
 73
   323
  0
VERTEX
  8
block06
 10
0.000000
 20
0.000000
 30
0.000000
 70
   128
 71
   299
 72
   302
 73
   323
  0
VERTEX
  8
block06
 10
0.000000
 20
0.000000
 30
0.000000
 70
   128
 71
   302
 72
   303
 73
   323
  0
VERTEX
  8
block06
 10
0.000000
 20
0.000000
 30
0.000000
 70
   128
 71
   303
 72
   324
 73
   323
  0
VERTEX
  8
block06
 10
0.000000
 20
0.000000
 30
0.000000
 70
   128
 71
   322
 72
   323
 73
   324
  0
VERTEX
  8
block06
 10
0.000000
 20
0.000000
 30
0.000000
 70
   128
 71
   325
 72
   330
 73
   327
  0
VERTEX
  8
block06
 10
0.000000
 20
0.000000
 30
0.000000
 70
   128
 71
   330
 72
   326
 73
   327
  0
VERTEX
  8
block06
 10
0.000000
 20
0.000000
 30
0.000000
 70
   128
 71
   326
 72
   299
 73
   327
  0
VERTEX
  8
block06
 10
0.000000
 20
0.000000
 30
0.000000
 70
   128
 71
   299
 72
   274
 73
   327
  0
VERTEX
  8
block06
 10
0.000000
 20
0.000000
 30
0.000000
 70
   128
 71
   325
 72
   327
 73
   274
  0
VERTEX
  8
block06
 10
0.000000
 20
0.000000
 30
0.000000
 70
   128
 71
   331
 72
   333
 73
   328
  0
VERTEX
  8
block06
 10
0.000000
 20
0.000000
 30
0.000000
 70
   128
 71
   333
 72
   329
 73
   328
  0
VERTEX
  8
block06
 10
0.000000
 20
0.000000
 30
0.000000
 70
   128
 71
   329
 72
   289
 73
   328
  0
VERTEX
  8
block06
 10
0.000000
 20
0.000000
 30
0.000000
 70
   128
 71
   289
 72
   290
 73
   328
  0
VERTEX
  8
block06
 10
0.000000
 20
0.000000
 30
0.000000
 70
   128
 71
   290
 72
   330
 73
   328
  0
VERTEX
  8
block06
 10
0.000000
 20
0.000000
 30
0.000000
 70
   128
 71
   330
 72
   276
 73
   328
  0
VERTEX
  8
block06
 10
0.000000
 20
0.000000
 30
0.000000
 70
   128
 71
   331
 72
   328
 73
   276
  0
VERTEX
  8
block06
 10
0.000000
 20
0.000000
 30
0.000000
 70
   128
 71
   335
 72
   332
 73
   334
  0
VERTEX
  8
block06
 10
0.000000
 20
0.000000
 30
0.000000
 70
   128
 71
   332
 72
   281
 73
   334
  0
VERTEX
  8
block06
 10
0.000000
 20
0.000000
 30
0.000000
 70
   128
 71
   281
 72
   283
 73
   334
  0
VERTEX
  8
block06
 10
0.000000
 20
0.000000
 30
0.000000
 70
   128
 71
   283
 72
   333
 73
   334
  0
VERTEX
  8
block06
 10
0.000000
 20
0.000000
 30
0.000000
 70
   128
 71
   333
 72
   278
 73
   334
  0
VERTEX
  8
block06
 10
0.000000
 20
0.000000
 30
0.000000
 70
   128
 71
   335
 72
   334
 73
   278
  0
VERTEX
  8
block06
 10
0.000000
 20
0.000000
 30
0.000000
 70
   128
 71
   272
 72
   308
 73
   335
  0
VERTEX
  8
block06
 10
0.000000
 20
0.000000
 30
0.000000
 70
   128
 71
   270
 72
   314
 73
   336
  0
VERTEX
  8
block06
 10
0.000000
 20
0.000000
 30
0.000000
 70
   128
 71
   314
 72
   313
 73
   336
  0
VERTEX
  8
block06
 10
0.000000
 20
0.000000
 30
0.000000
 70
   128
 71
   313
 72
   271
 73
   336
  0
VERTEX
  8
block06
 10
0.000000
 20
0.000000
 30
0.000000
 70
   128
 71
   356
 72
   337
 73
   348
  0
VERTEX
  8
block06
 10
0.000000
 20
0.000000
 30
0.000000
 70
   128
 71
   357
 72
   279
 73
   340
  0
VERTEX
  8
block06
 10
0.000000
 20
0.000000
 30
0.000000
 70
   128
 71
   279
 72
   320
 73
   340
  0
VERTEX
  8
block06
 10
0.000000
 20
0.000000
 30
0.000000
 70
   128
 71
   320
 72
   321
 73
   340
  0
VERTEX
  8
block06
 10
0.000000
 20
0.000000
 30
0.000000
 70
   128
 71
   321
 72
   338
 73
   340
  0
VERTEX
  8
block06
 10
0.000000
 20
0.000000
 30
0.000000
 70
   128
 71
   338
 72
   339
 73
   340
  0
VERTEX
  8
block06
 10
0.000000
 20
0.000000
 30
0.000000
 70
   128
 71
   357
 72
   340
 73
   339
  0
VERTEX
  8
block06
 10
0.000000
 20
0.000000
 30
0.000000
 70
   128
 71
   352
 72
   292
 73
   341
  0
VERTEX
  8
block06
 10
0.000000
 20
0.000000
 30
0.000000
 70
   128
 71
   292
 72
   284
 73
   341
  0
VERTEX
  8
block06
 10
0.000000
 20
0.000000
 30
0.000000
 70
   128
 71
   284
 72
   342
 73
   341
  0
VERTEX
  8
block06
 10
0.000000
 20
0.000000
 30
0.000000
 70
   128
 71
   342
 72
   354
 73
   341
  0
VERTEX
  8
block06
 10
0.000000
 20
0.000000
 30
0.000000
 70
   128
 71
   341
 72
   354
 73
   358
  0
VERTEX
  8
block06
 10
0.000000
 20
0.000000
 30
0.000000
 70
   128
 71
   352
 72
   341
 73
   358
  0
VERTEX
  8
block06
 10
0.000000
 20
0.000000
 30
0.000000
 70
   128
 71
   311
 72
   352
 73
   359
  0
VERTEX
  8
block06
 10
0.000000
 20
0.000000
 30
0.000000
 70
   128
 71
   312
 72
   311
 73
   359
  0
VERTEX
  8
block06
 10
0.000000
 20
0.000000
 30
0.000000
 70
   128
 71
   343
 72
   345
 73
   344
  0
VERTEX
  8
block06
 10
0.000000
 20
0.000000
 30
0.000000
 70
   128
 71
   345
 72
   298
 73
   344
  0
VERTEX
  8
block06
 10
0.000000
 20
0.000000
 30
0.000000
 70
   128
 71
   298
 72
   296
 73
   344
  0
VERTEX
  8
block06
 10
0.000000
 20
0.000000
 30
0.000000
 70
   128
 71
   296
 72
   309
 73
   344
  0
VERTEX
  8
block06
 10
0.000000
 20
0.000000
 30
0.000000
 70
   128
 71
   309
 72
   349
 73
   344
  0
VERTEX
  8
block06
 10
0.000000
 20
0.000000
 30
0.000000
 70
   128
 71
   343
 72
   344
 73
   349
  0
VERTEX
  8
block06
 10
0.000000
 20
0.000000
 30
0.000000
 70
   128
 71
   348
 72
   337
 73
   347
  0
VERTEX
  8
block06
 10
0.000000
 20
0.000000
 30
0.000000
 70
   128
 71
   337
 72
   346
 73
   347
  0
VERTEX
  8
block06
 10
0.000000
 20
0.000000
 30
0.000000
 70
   128
 71
   346
 72
   304
 73
   347
  0
VERTEX
  8
block06
 10
0.000000
 20
0.000000
 30
0.000000
 70
   128
 71
   304
 72
   345
 73
   347
  0
VERTEX
  8
block06
 10
0.000000
 20
0.000000
 30
0.000000
 70
   128
 71
   345
 72
   362
 73
   347
  0
VERTEX
  8
block06
 10
0.000000
 20
0.000000
 30
0.000000
 70
   128
 71
   348
 72
   347
 73
   362
  0
VERTEX
  8
block06
 10
0.000000
 20
0.000000
 30
0.000000
 70
   128
 71
   258
 72
   348
 73
   363
  0
VERTEX
  8
block06
 10
0.000000
 20
0.000000
 30
0.000000
 70
   128
 71
   363
 72
   348
 73
   362
  0
VERTEX
  8
block06
 10
0.000000
 20
0.000000
 30
0.000000
 70
   128
 71
   364
 72
   343
 73
   361
  0
VERTEX
  8
block06
 10
0.000000
 20
0.000000
 30
0.000000
 70
   128
 71
   361
 72
   343
 73
   349
  0
VERTEX
  8
block06
 10
0.000000
 20
0.000000
 30
0.000000
 70
   128
 71
   350
 72
   312
 73
   351
  0
VERTEX
  8
block06
 10
0.000000
 20
0.000000
 30
0.000000
 70
   128
 71
   351
 72
   312
 73
   359
  0
VERTEX
  8
block06
 10
0.000000
 20
0.000000
 30
0.000000
 70
   128
 71
   360
 72
   352
 73
   260
  0
VERTEX
  8
block06
 10
0.000000
 20
0.000000
 30
0.000000
 70
   128
 71
   260
 72
   352
 73
   358
  0
VERTEX
  8
block06
 10
0.000000
 20
0.000000
 30
0.000000
 70
   128
 71
   264
 72
   354
 73
   353
  0
VERTEX
  8
block06
 10
0.000000
 20
0.000000
 30
0.000000
 70
   128
 71
   353
 72
   354
 73
   357
  0
VERTEX
  8
block06
 10
0.000000
 20
0.000000
 30
0.000000
 70
   128
 71
   265
 72
   339
 73
   355
  0
VERTEX
  8
block06
 10
0.000000
 20
0.000000
 30
0.000000
 70
   128
 71
   355
 72
   339
 73
   356
  0
VERTEX
  8
block06
 10
0.000000
 20
0.000000
 30
0.000000
 70
   128
 71
   348
 72
   258
 73
   356
  0
VERTEX
  8
block06
 10
0.000000
 20
0.000000
 30
0.000000
 70
   128
 71
   355
 72
   356
 73
   258
  0
VERTEX
  8
block06
 10
0.000000
 20
0.000000
 30
0.000000
 70
   128
 71
   339
 72
   265
 73
   357
  0
VERTEX
  8
block06
 10
0.000000
 20
0.000000
 30
0.000000
 70
   128
 71
   353
 72
   357
 73
   265
  0
VERTEX
  8
block06
 10
0.000000
 20
0.000000
 30
0.000000
 70
   128
 71
   354
 72
   264
 73
   358
  0
VERTEX
  8
block06
 10
0.000000
 20
0.000000
 30
0.000000
 70
   128
 71
   260
 72
   358
 73
   264
  0
VERTEX
  8
block06
 10
0.000000
 20
0.000000
 30
0.000000
 70
   128
 71
   352
 72
   360
 73
   359
  0
VERTEX
  8
block06
 10
0.000000
 20
0.000000
 30
0.000000
 70
   128
 71
   351
 72
   359
 73
   360
  0
VERTEX
  8
block06
 10
0.000000
 20
0.000000
 30
0.000000
 70
   128
 71
   312
 72
   350
 73
   349
  0
VERTEX
  8
block06
 10
0.000000
 20
0.000000
 30
0.000000
 70
   128
 71
   361
 72
   349
 73
   350
  0
VERTEX
  8
block06
 10
0.000000
 20
0.000000
 30
0.000000
 70
   128
 71
   343
 72
   364
 73
   362
  0
VERTEX
  8
block06
 10
0.000000
 20
0.000000
 30
0.000000
 70
   128
 71
   363
 72
   362
 73
   364
  0
VERTEX
  8
block06
 10
0.000000
 20
0.000000
 30
0.000000
 70
   128
 71
   365
 72
   370
 73
   366
  0
VERTEX
  8
block06
 10
0.000000
 20
0.000000
 30
0.000000
 70
   128
 71
   365
 72
   366
 73
   367
  0
VERTEX
  8
block06
 10
0.000000
 20
0.000000
 30
0.000000
 70
   128
 71
   368
 72
   388
 73
   402
  0
VERTEX
  8
block06
 10
0.000000
 20
0.000000
 30
0.000000
 70
   128
 71
   368
 72
   402
 73
   369
  0
VERTEX
  8
block06
 10
0.000000
 20
0.000000
 30
0.000000
 70
   128
 71
   384
 72
   396
 73
   375
  0
VERTEX
  8
block06
 10
0.000000
 20
0.000000
 30
0.000000
 70
   128
 71
   370
 72
   372
 73
   366
  0
VERTEX
  8
block06
 10
0.000000
 20
0.000000
 30
0.000000
 70
   128
 71
   366
 72
   372
 73
   378
  0
VERTEX
  8
block06
 10
0.000000
 20
0.000000
 30
0.000000
 70
   128
 71
   384
 72
   375
 73
   373
  0
VERTEX
  8
block06
 10
0.000000
 20
0.000000
 30
0.000000
 70
   128
 71
   372
 72
   370
 73
   401
  0
VERTEX
  8
block06
 10
0.000000
 20
0.000000
 30
0.000000
 70
   128
 71
   372
 72
   401
 73
   371
  0
VERTEX
  8
block06
 10
0.000000
 20
0.000000
 30
0.000000
 70
   128
 71
   372
 72
   371
 73
   402
  0
VERTEX
  8
block06
 10
0.000000
 20
0.000000
 30
0.000000
 70
   128
 71
   372
 72
   402
 73
   373
  0
VERTEX
  8
block06
 10
0.000000
 20
0.000000
 30
0.000000
 70
   128
 71
   373
 72
   402
 73
   388
  0
VERTEX
  8
block06
 10
0.000000
 20
0.000000
 30
0.000000
 70
   128
 71
   373
 72
   388
 73
   390
  0
VERTEX
  8
block06
 10
0.000000
 20
0.000000
 30
0.000000
 70
   128
 71
   373
 72
   390
 73
   374
  0
VERTEX
  8
block06
 10
0.000000
 20
0.000000
 30
0.000000
 70
   128
 71
   384
 72
   373
 73
   374
  0
VERTEX
  8
block06
 10
0.000000
 20
0.000000
 30
0.000000
 70
   128
 71
   375
 72
   396
 73
   391
  0
VERTEX
  8
block06
 10
0.000000
 20
0.000000
 30
0.000000
 70
   128
 71
   375
 72
   391
 73
   392
  0
VERTEX
  8
block06
 10
0.000000
 20
0.000000
 30
0.000000
 70
   128
 71
   375
 72
   392
 73
   394
  0
VERTEX
  8
block06
 10
0.000000
 20
0.000000
 30
0.000000
 70
   128
 71
   375
 72
   394
 73
   387
  0
VERTEX
  8
block06
 10
0.000000
 20
0.000000
 30
0.000000
 70
   128
 71
   375
 72
   387
 73
   378
  0
VERTEX
  8
block06
 10
0.000000
 20
0.000000
 30
0.000000
 70
   128
 71
   378
 72
   387
 73
   376
  0
VERTEX
  8
block06
 10
0.000000
 20
0.000000
 30
0.000000
 70
   128
 71
   378
 72
   376
 73
   377
  0
VERTEX
  8
block06
 10
0.000000
 20
0.000000
 30
0.000000
 70
   128
 71
   366
 72
   378
 73
   377
  0
VERTEX
  8
block06
 10
0.000000
 20
0.000000
 30
0.000000
 70
   128
 71
   378
 72
   380
 73
   381
  0
VERTEX
  8
block06
 10
0.000000
 20
0.000000
 30
0.000000
 70
   128
 71
   378
 72
   381
 73
   375
  0
VERTEX
  8
block06
 10
0.000000
 20
0.000000
 30
0.000000
 70
   128
 71
   372
 72
   379
 73
   380
  0
VERTEX
  8
block06
 10
0.000000
 20
0.000000
 30
0.000000
 70
   128
 71
   372
 72
   380
 73
   378
  0
VERTEX
  8
block06
 10
0.000000
 20
0.000000
 30
0.000000
 70
   128
 71
   373
 72
   382
 73
   379
  0
VERTEX
  8
block06
 10
0.000000
 20
0.000000
 30
0.000000
 70
   128
 71
   373
 72
   379
 73
   372
  0
VERTEX
  8
block06
 10
0.000000
 20
0.000000
 30
0.000000
 70
   128
 71
   375
 72
   381
 73
   382
  0
VERTEX
  8
block06
 10
0.000000
 20
0.000000
 30
0.000000
 70
   128
 71
   375
 72
   382
 73
   373
  0
VERTEX
  8
block06
 10
0.000000
 20
0.000000
 30
0.000000
 70
   128
 71
   380
 72
   379
 73
   382
  0
VERTEX
  8
block06
 10
0.000000
 20
0.000000
 30
0.000000
 70
   128
 71
   380
 72
   382
 73
   381
  0
VERTEX
  8
block06
 10
0.000000
 20
0.000000
 30
0.000000
 70
   128
 71
   405
 72
   436
 73
   418
  0
VERTEX
  8
block06
 10
0.000000
 20
0.000000
 30
0.000000
 70
   128
 71
   405
 72
   418
 73
   408
  0
VERTEX
  8
block06
 10
0.000000
 20
0.000000
 30
0.000000
 70
   128
 71
   384
 72
   383
 73
   385
  0
VERTEX
  8
block06
 10
0.000000
 20
0.000000
 30
0.000000
 70
   128
 71
   384
 72
   385
 73
   396
  0
VERTEX
  8
block06
 10
0.000000
 20
0.000000
 30
0.000000
 70
   128
 71
   394
 72
   431
 73
   386
  0
VERTEX
  8
block06
 10
0.000000
 20
0.000000
 30
0.000000
 70
   128
 71
   394
 72
   386
 73
   387
  0
VERTEX
  8
block06
 10
0.000000
 20
0.000000
 30
0.000000
 70
   128
 71
   388
 72
   389
 73
   390
  0
VERTEX
  8
block06
 10
0.000000
 20
0.000000
 30
0.000000
 70
   128
 71
   390
 72
   389
 73
   440
  0
VERTEX
  8
block06
 10
0.000000
 20
0.000000
 30
0.000000
 70
   128
 71
   374
 72
   440
 73
   383
  0
VERTEX
  8
block06
 10
0.000000
 20
0.000000
 30
0.000000
 70
   128
 71
   374
 72
   383
 73
   384
  0
VERTEX
  8
block06
 10
0.000000
 20
0.000000
 30
0.000000
 70
   128
 71
   390
 72
   440
 73
   374
  0
VERTEX
  8
block06
 10
0.000000
 20
0.000000
 30
0.000000
 70
   128
 71
   389
 72
   388
 73
   368
  0
VERTEX
  8
block06
 10
0.000000
 20
0.000000
 30
0.000000
 70
   128
 71
   391
 72
   395
 73
   392
  0
VERTEX
  8
block06
 10
0.000000
 20
0.000000
 30
0.000000
 70
   128
 71
   392
 72
   395
 73
   393
  0
VERTEX
  8
block06
 10
0.000000
 20
0.000000
 30
0.000000
 70
   128
 71
   393
 72
   431
 73
   394
  0
VERTEX
  8
block06
 10
0.000000
 20
0.000000
 30
0.000000
 70
   128
 71
   392
 72
   393
 73
   394
  0
VERTEX
  8
block06
 10
0.000000
 20
0.000000
 30
0.000000
 70
   128
 71
   395
 72
   391
 73
   385
  0
VERTEX
  8
block06
 10
0.000000
 20
0.000000
 30
0.000000
 70
   128
 71
   385
 72
   391
 73
   396
  0
VERTEX
  8
block06
 10
0.000000
 20
0.000000
 30
0.000000
 70
   128
 71
   398
 72
   397
 73
   427
  0
VERTEX
  8
block06
 10
0.000000
 20
0.000000
 30
0.000000
 70
   128
 71
   427
 72
   397
 73
   435
  0
VERTEX
  8
block06
 10
0.000000
 20
0.000000
 30
0.000000
 70
   128
 71
   435
 72
   436
 73
   405
  0
VERTEX
  8
block06
 10
0.000000
 20
0.000000
 30
0.000000
 70
   128
 71
   427
 72
   435
 73
   405
  0
VERTEX
  8
block06
 10
0.000000
 20
0.000000
 30
0.000000
 70
   128
 71
   397
 72
   398
 73
   383
  0
VERTEX
  8
block06
 10
0.000000
 20
0.000000
 30
0.000000
 70
   128
 71
   383
 72
   398
 73
   385
  0
VERTEX
  8
block06
 10
0.000000
 20
0.000000
 30
0.000000
 70
   128
 71
   400
 72
   399
 73
   433
  0
VERTEX
  8
block06
 10
0.000000
 20
0.000000
 30
0.000000
 70
   128
 71
   433
 72
   399
 73
   419
  0
VERTEX
  8
block06
 10
0.000000
 20
0.000000
 30
0.000000
 70
   128
 71
   419
 72
   418
 73
   436
  0
VERTEX
  8
block06
 10
0.000000
 20
0.000000
 30
0.000000
 70
   128
 71
   433
 72
   419
 73
   436
  0
VERTEX
  8
block06
 10
0.000000
 20
0.000000
 30
0.000000
 70
   128
 71
   399
 72
   400
 73
   369
  0
VERTEX
  8
block06
 10
0.000000
 20
0.000000
 30
0.000000
 70
   128
 71
   369
 72
   400
 73
   368
  0
VERTEX
  8
block06
 10
0.000000
 20
0.000000
 30
0.000000
 70
   128
 71
   401
 72
   424
 73
   371
  0
VERTEX
  8
block06
 10
0.000000
 20
0.000000
 30
0.000000
 70
   128
 71
   371
 72
   424
 73
   425
  0
VERTEX
  8
block06
 10
0.000000
 20
0.000000
 30
0.000000
 70
   128
 71
   425
 72
   369
 73
   402
  0
VERTEX
  8
block06
 10
0.000000
 20
0.000000
 30
0.000000
 70
   128
 71
   371
 72
   425
 73
   402
  0
VERTEX
  8
block06
 10
0.000000
 20
0.000000
 30
0.000000
 70
   128
 71
   424
 72
   401
 73
   365
  0
VERTEX
  8
block06
 10
0.000000
 20
0.000000
 30
0.000000
 70
   128
 71
   365
 72
   401
 73
   370
  0
VERTEX
  8
block06
 10
0.000000
 20
0.000000
 30
0.000000
 70
   128
 71
   376
 72
   404
 73
   377
  0
VERTEX
  8
block06
 10
0.000000
 20
0.000000
 30
0.000000
 70
   128
 71
   377
 72
   404
 73
   403
  0
VERTEX
  8
block06
 10
0.000000
 20
0.000000
 30
0.000000
 70
   128
 71
   403
 72
   367
 73
   366
  0
VERTEX
  8
block06
 10
0.000000
 20
0.000000
 30
0.000000
 70
   128
 71
   377
 72
   403
 73
   366
  0
VERTEX
  8
block06
 10
0.000000
 20
0.000000
 30
0.000000
 70
   128
 71
   404
 72
   376
 73
   386
  0
VERTEX
  8
block06
 10
0.000000
 20
0.000000
 30
0.000000
 70
   128
 71
   386
 72
   376
 73
   387
  0
VERTEX
  8
block06
 10
0.000000
 20
0.000000
 30
0.000000
 70
   128
 71
   416
 72
   431
 73
   428
  0
VERTEX
  8
block06
 10
0.000000
 20
0.000000
 30
0.000000
 70
   128
 71
   416
 72
   428
 73
   406
  0
VERTEX
  8
block06
 10
0.000000
 20
0.000000
 30
0.000000
 70
   128
 71
   415
 72
   406
 73
   405
  0
VERTEX
  8
block06
 10
0.000000
 20
0.000000
 30
0.000000
 70
   128
 71
   415
 72
   405
 73
   408
  0
VERTEX
  8
block06
 10
0.000000
 20
0.000000
 30
0.000000
 70
   128
 71
   416
 72
   406
 73
   415
  0
VERTEX
  8
block06
 10
0.000000
 20
0.000000
 30
0.000000
 70
   128
 71
   431
 72
   416
 73
   386
  0
VERTEX
  8
block06
 10
0.000000
 20
0.000000
 30
0.000000
 70
   128
 71
   410
 72
   414
 73
   407
  0
VERTEX
  8
block06
 10
0.000000
 20
0.000000
 30
0.000000
 70
   128
 71
   407
 72
   414
 73
   409
  0
VERTEX
  8
block06
 10
0.000000
 20
0.000000
 30
0.000000
 70
   128
 71
   409
 72
   408
 73
   418
  0
VERTEX
  8
block06
 10
0.000000
 20
0.000000
 30
0.000000
 70
   128
 71
   407
 72
   409
 73
   418
  0
VERTEX
  8
block06
 10
0.000000
 20
0.000000
 30
0.000000
 70
   128
 71
   414
 72
   410
 73
   367
  0
VERTEX
  8
block06
 10
0.000000
 20
0.000000
 30
0.000000
 70
   128
 71
   367
 72
   410
 73
   365
  0
VERTEX
  8
block06
 10
0.000000
 20
0.000000
 30
0.000000
 70
   128
 71
   414
 72
   411
 73
   409
  0
VERTEX
  8
block06
 10
0.000000
 20
0.000000
 30
0.000000
 70
   128
 71
   411
 72
   404
 73
   417
  0
VERTEX
  8
block06
 10
0.000000
 20
0.000000
 30
0.000000
 70
   128
 71
   417
 72
   404
 73
   386
  0
VERTEX
  8
block06
 10
0.000000
 20
0.000000
 30
0.000000
 70
   128
 71
   409
 72
   411
 73
   413
  0
VERTEX
  8
block06
 10
0.000000
 20
0.000000
 30
0.000000
 70
   128
 71
   411
 72
   417
 73
   413
  0
VERTEX
  8
block06
 10
0.000000
 20
0.000000
 30
0.000000
 70
   128
 71
   417
 72
   412
 73
   413
  0
VERTEX
  8
block06
 10
0.000000
 20
0.000000
 30
0.000000
 70
   128
 71
   412
 72
   408
 73
   413
  0
VERTEX
  8
block06
 10
0.000000
 20
0.000000
 30
0.000000
 70
   128
 71
   412
 72
   415
 73
   408
  0
VERTEX
  8
block06
 10
0.000000
 20
0.000000
 30
0.000000
 70
   128
 71
   409
 72
   413
 73
   408
  0
VERTEX
  8
block06
 10
0.000000
 20
0.000000
 30
0.000000
 70
   128
 71
   411
 72
   414
 73
   403
  0
VERTEX
  8
block06
 10
0.000000
 20
0.000000
 30
0.000000
 70
   128
 71
   403
 72
   414
 73
   367
  0
VERTEX
  8
block06
 10
0.000000
 20
0.000000
 30
0.000000
 70
   128
 71
   404
 72
   411
 73
   403
  0
VERTEX
  8
block06
 10
0.000000
 20
0.000000
 30
0.000000
 70
   128
 71
   415
 72
   412
 73
   416
  0
VERTEX
  8
block06
 10
0.000000
 20
0.000000
 30
0.000000
 70
   128
 71
   412
 72
   417
 73
   416
  0
VERTEX
  8
block06
 10
0.000000
 20
0.000000
 30
0.000000
 70
   128
 71
   417
 72
   386
 73
   416
  0
VERTEX
  8
block06
 10
0.000000
 20
0.000000
 30
0.000000
 70
   128
 71
   421
 72
   407
 73
   418
  0
VERTEX
  8
block06
 10
0.000000
 20
0.000000
 30
0.000000
 70
   128
 71
   422
 72
   420
 73
   419
  0
VERTEX
  8
block06
 10
0.000000
 20
0.000000
 30
0.000000
 70
   128
 71
   421
 72
   418
 73
   420
  0
VERTEX
  8
block06
 10
0.000000
 20
0.000000
 30
0.000000
 70
   128
 71
   422
 72
   419
 73
   399
  0
VERTEX
  8
block06
 10
0.000000
 20
0.000000
 30
0.000000
 70
   128
 71
   419
 72
   420
 73
   418
  0
VERTEX
  8
block06
 10
0.000000
 20
0.000000
 30
0.000000
 70
   128
 71
   407
 72
   421
 73
   423
  0
VERTEX
  8
block06
 10
0.000000
 20
0.000000
 30
0.000000
 70
   128
 71
   421
 72
   420
 73
   423
  0
VERTEX
  8
block06
 10
0.000000
 20
0.000000
 30
0.000000
 70
   128
 71
   420
 72
   422
 73
   423
  0
VERTEX
  8
block06
 10
0.000000
 20
0.000000
 30
0.000000
 70
   128
 71
   422
 72
   424
 73
   423
  0
VERTEX
  8
block06
 10
0.000000
 20
0.000000
 30
0.000000
 70
   128
 71
   423
 72
   424
 73
   365
  0
VERTEX
  8
block06
 10
0.000000
 20
0.000000
 30
0.000000
 70
   128
 71
   423
 72
   365
 73
   410
  0
VERTEX
  8
block06
 10
0.000000
 20
0.000000
 30
0.000000
 70
   128
 71
   407
 72
   423
 73
   410
  0
VERTEX
  8
block06
 10
0.000000
 20
0.000000
 30
0.000000
 70
   128
 71
   424
 72
   422
 73
   425
  0
VERTEX
  8
block06
 10
0.000000
 20
0.000000
 30
0.000000
 70
   128
 71
   422
 72
   399
 73
   425
  0
VERTEX
  8
block06
 10
0.000000
 20
0.000000
 30
0.000000
 70
   128
 71
   425
 72
   399
 73
   369
  0
VERTEX
  8
block06
 10
0.000000
 20
0.000000
 30
0.000000
 70
   128
 71
   427
 72
   426
 73
   432
  0
VERTEX
  8
block06
 10
0.000000
 20
0.000000
 30
0.000000
 70
   128
 71
   429
 72
   426
 73
   405
  0
VERTEX
  8
block06
 10
0.000000
 20
0.000000
 30
0.000000
 70
   128
 71
   426
 72
   427
 73
   405
  0
VERTEX
  8
block06
 10
0.000000
 20
0.000000
 30
0.000000
 70
   128
 71
   395
 72
   432
 73
   393
  0
VERTEX
  8
block06
 10
0.000000
 20
0.000000
 30
0.000000
 70
   128
 71
   428
 72
   429
 73
   406
  0
VERTEX
  8
block06
 10
0.000000
 20
0.000000
 30
0.000000
 70
   128
 71
   429
 72
   405
 73
   406
  0
VERTEX
  8
block06
 10
0.000000
 20
0.000000
 30
0.000000
 70
   128
 71
   393
 72
   432
 73
   430
  0
VERTEX
  8
block06
 10
0.000000
 20
0.000000
 30
0.000000
 70
   128
 71
   432
 72
   426
 73
   430
  0
VERTEX
  8
block06
 10
0.000000
 20
0.000000
 30
0.000000
 70
   128
 71
   426
 72
   429
 73
   430
  0
VERTEX
  8
block06
 10
0.000000
 20
0.000000
 30
0.000000
 70
   128
 71
   429
 72
   428
 73
   430
  0
VERTEX
  8
block06
 10
0.000000
 20
0.000000
 30
0.000000
 70
   128
 71
   430
 72
   428
 73
   431
  0
VERTEX
  8
block06
 10
0.000000
 20
0.000000
 30
0.000000
 70
   128
 71
   393
 72
   430
 73
   431
  0
VERTEX
  8
block06
 10
0.000000
 20
0.000000
 30
0.000000
 70
   128
 71
   427
 72
   432
 73
   398
  0
VERTEX
  8
block06
 10
0.000000
 20
0.000000
 30
0.000000
 70
   128
 71
   432
 72
   395
 73
   398
  0
VERTEX
  8
block06
 10
0.000000
 20
0.000000
 30
0.000000
 70
   128
 71
   398
 72
   395
 73
   385
  0
VERTEX
  8
block06
 10
0.000000
 20
0.000000
 30
0.000000
 70
   128
 71
   437
 72
   400
 73
   433
  0
VERTEX
  8
block06
 10
0.000000
 20
0.000000
 30
0.000000
 70
   128
 71
   434
 72
   439
 73
   397
  0
VERTEX
  8
block06
 10
0.000000
 20
0.000000
 30
0.000000
 70
   128
 71
   439
 72
   436
 73
   435
  0
VERTEX
  8
block06
 10
0.000000
 20
0.000000
 30
0.000000
 70
   128
 71
   434
 72
   397
 73
   383
  0
VERTEX
  8
block06
 10
0.000000
 20
0.000000
 30
0.000000
 70
   128
 71
   436
 72
   439
 73
   437
  0
VERTEX
  8
block06
 10
0.000000
 20
0.000000
 30
0.000000
 70
   128
 71
   400
 72
   437
 73
   438
  0
VERTEX
  8
block06
 10
0.000000
 20
0.000000
 30
0.000000
 70
   128
 71
   437
 72
   439
 73
   438
  0
VERTEX
  8
block06
 10
0.000000
 20
0.000000
 30
0.000000
 70
   128
 71
   439
 72
   434
 73
   438
  0
VERTEX
  8
block06
 10
0.000000
 20
0.000000
 30
0.000000
 70
   128
 71
   434
 72
   389
 73
   438
  0
VERTEX
  8
block06
 10
0.000000
 20
0.000000
 30
0.000000
 70
   128
 71
   438
 72
   389
 73
   368
  0
VERTEX
  8
block06
 10
0.000000
 20
0.000000
 30
0.000000
 70
   128
 71
   400
 72
   438
 73
   368
  0
VERTEX
  8
block06
 10
0.000000
 20
0.000000
 30
0.000000
 70
   128
 71
   437
 72
   433
 73
   436
  0
VERTEX
  8
block06
 10
0.000000
 20
0.000000
 30
0.000000
 70
   128
 71
   397
 72
   439
 73
   435
  0
VERTEX
  8
block06
 10
0.000000
 20
0.000000
 30
0.000000
 70
   128
 71
   389
 72
   434
 73
   440
  0
VERTEX
  8
block06
 10
0.000000
 20
0.000000
 30
0.000000
 70
   128
 71
   434
 72
   383
 73
   440
  0
SEQEND
  8
block06
  0
ENDSEC
  0
EOF
